<?xml version="1.0" encoding="utf-8"?>
<!-- Generator: Adobe Illustrator 27.9.6, SVG Export Plug-In . SVG Version: 9.03 Build 54986)  -->
<svg version="1.1" id="Capa_1" xmlns="http://www.w3.org/2000/svg" xmlns:xlink="http://www.w3.org/1999/xlink" x="0px" y="0px"
	 viewBox="0 0 880.6 821.5" style="enable-background:new 0 0 880.6 821.5;" xml:space="preserve">
<style type="text/css">
	.st0{fill:#F9B640;}
	.st1{fill:#C781C7;}
	.st2{fill:#4325D6;}
	.st3{fill:#C766B9;}
	.st4{fill:#821C75;}
	.st5{fill:#7157E8;}
	.st6{fill:#DEA4DE;}
	.st7{fill:#745BED;}
	.st8{fill:#DE7DD0;}
	.st9{fill:#99458F;}
	.st10{fill:#8E75FF;}
	.st11{fill:#AD9DFF;}
	.st12{opacity:0.51;fill:#7A60F9;enable-background:new    ;}
	.st13{opacity:0.38;fill:#AD9DFF;enable-background:new    ;}
	.st14{opacity:0.33;fill:#4D20D1;enable-background:new    ;}
	.st15{fill:#AF3A64;}
	.st16{fill:#CE7CA7;}
	.st17{fill:none;stroke:#000000;stroke-width:6.3677;stroke-linecap:round;stroke-linejoin:round;stroke-miterlimit:10;}
	.st18{opacity:0.31;mask:url(#SVGID_00000111150617469676121670000014271462794893904013_);}
	.st19{fill:#346D75;}
	.st20{fill:#F2DA38;}
	.st21{fill:#E6C300;}
	.st22{opacity:0.75;}
	.st23{fill:#FFFFFF;}
	.st24{opacity:0.43;fill:#FFFFFF;enable-background:new    ;}
	.st25{fill:none;stroke:#000000;stroke-width:7.182;stroke-linejoin:round;stroke-miterlimit:10;}
</style>
<g id="Capa_9">
</g>
<g id="Capa_10">
</g>
<g id="Capa_11">
</g>
<g id="Capa_12">
</g>
<g id="Capa_13">
</g>
<g id="Capa_4">
</g>
<g id="Capa_3">
</g>
<g id="Capa_8">
</g>
<g id="Capa_5">
</g>
<g id="Capa_7">
</g>
<g id="Capa_14">
</g>
<g id="Capa_6">
	<g>
		<g>
			<path class="st0" d="M555.1,807.7c-18.9,0-36.9-5.1-51.8-14.5c-10.5-6.7-45.2-31-47.2-62.6c-0.2-2.9,0.8-5.7,2.7-7.8
				c2.1-2.2,5.2-3.7,8.6-3.7c2.2,0,4.3,0.5,6,1.6c1.7-0.5,3.7-0.8,5.6-0.8c5.4,0,10.8,1.9,15.6,3.7c0.2,0,0.5,0.2,0.6,0.2
				c1.3-1.3,2.9-2.2,4.6-2.9c1.4-0.5,3-0.6,4.8-0.6c2.1,0,4.1,0.3,5.9,0.8c3.3,0.6,6.4,1.6,9.4,2.5c1.4,0.5,2.9,1.1,4.1,1.6
				c1,0.3,1.7,0.8,2.5,1.1c2.4,0.8,4.9,1.7,7.2,3.7c5.1-0.2,9.9-1,14.3-2.2c0.6-2.9,2.2-5.4,4.8-7c5.6-3.8,10.2-8.1,13.7-13.4
				c1.9-2.9,4.9-4.8,8.3-5.2c0.8-2.5,1.3-5.2,1.3-7.8c0-1.3,0-2.5-0.3-3.8c-1-0.2-1.7-0.6-2.5-1c-7.8-4.5-14.5-10.2-19.9-15.3
				c-1.7-1.6-3.2-3.3-4.3-5.1c-0.2,0-0.3-0.2-0.3-0.2c-7.2-2.4-14.6-4.6-21.9-6.7l-1.4-0.5c-0.8,0.2-1.7,0.3-2.4,0.3h-0.5
				c-1.7,0.3-3.7,0.3-5.4,0.3c-7.5,0-14.6-2.1-21.3-6.4c-3.3-2.1-6.5-4.6-9.2-7.5c-11.8-4.8-21.6-10-30.4-16.1
				c-8.7-1.3-16.2-7.8-21.1-13.2c-1.3-1.4-2.5-3-3.8-4.6c-2.5-2.5-4.6-5.2-6.2-8.1c-2.1-3.8-3.5-8.4-3.7-12.7
				c-2.4-4.6-4.6-9.4-6.4-14.5c-5.2,5.7-11,10.8-17,15.4c-18.1,13.7-39.7,22.4-60.9,24.5c-1.9,1.4-4,2.9-6,3.8
				c-4.3,2.1-9.1,3.2-13.8,3.2c-9.4,0-17.6-4-22.7-10.8c-0.5-0.5-0.8-1.1-1.1-1.7c-0.5-0.2-1-0.3-1.4-0.6c-3.5-0.5-7.2-1.3-10.7-2.1
				c-3,4.6-8.4,7.5-14.5,7.5c-1,0-2.1,0-3-0.2c-4-0.6-7.9-2.1-11.4-4.3c-9.7-3.7-16.7-12.2-18.1-22.1c-0.3-1.9-0.2-3.8,0.2-5.6
				c-4.8-4.3-9.4-9.1-13.5-14.1c-1.9,0-3.8-0.5-5.7-1.1c-0.3-0.2-0.5-0.2-0.8-0.3c-3-0.6-6-1.9-8.6-4c-3.2-2.5-6.7-7.2-9.1-11.8
				c-4.6-6.5-6-14.5-4-20.7c0.3-2.4,1-4.5,1.9-6.4c-2.2-4.9-4.5-9.9-6.5-14.8l0,0c-2.9-0.2-5.6-0.8-8.1-2.1
				c-7-3.7-12.7-11.3-15.7-21c-2.7-8.6-2.7-17.2-0.3-24c-2.1-3-4.1-5.9-6.5-8.1c-2.4,3.7-5.7,7-8.9,9.7c-4.8,4.1-14.1,11-25,11.8
				c-0.5,0-0.8,0-1.3,0c-1,0-1.9,0-2.9-0.2c-1.1,3-2.2,6.4-3.3,10c-0.2,0.5-0.2,0.8-0.3,1.3c7,6,6.4,20,4,28.5
				c-2.5,9.5-7.6,15.7-13.8,17c-1.9,6.4-3,11.6-4.5,18.6c-0.3,1.6-0.6,3.3-1.1,5.1c0.3,0.8,0.8,1.7,1.1,2.5c1.6,3.7,0,8.1-1.7,10.8
				c-2.1,3.2-4.6,4-6.2,4.1c-1,0.5-2.2,0.6-3.3,0.6c-5.7,0-11.9-5.6-14.6-9.2c-7.2-9.9-13.5-20-18.6-30
				c-23.1-46.1-24.6-96.8-4.3-135.9c8.1-15.6,19.4-29.3,32.6-39.9c-4.1-8.4-7-17.3-8.6-26.6c-1.7-3.2-2.5-6.8-2.9-9.9
				c-0.5-3.3-0.6-7.3,1.3-11.1c0-2.5,0.2-4.8,0.5-7c0.2-2.1,0.5-4.3,0.8-6.5c0-0.3-0.2-0.5-0.2-0.8l-0.2-0.5c-0.2-0.5-0.2-1-0.2-1.6
				c-2.7-8.1,1.7-18,2.7-20c0.5-1,1.1-1.9,1.9-2.7c-1.7,0.8-3.7,1.3-5.6,1.3c-1.9,0-3.8-0.5-5.6-1.4c-5.6-3-13.5-20-12.1-30.5
				c-1.3-10,1.3-21.1,7.3-30.4c1.9-2.9,4.1-5.7,6.8-8.4c-2.1-1.6-4.3-3-6.7-4.3c-2.5-1.3-4.9-2.1-7.5-2.5c-0.6,0.2-1.3,0.2-1.9,0.3
				h-0.2c-0.6,0-1.1,0.2-1.6,0.3c-1.3,0.3-2.7,0.5-4.5,0.5c-1,0-1.7,0-2.7-0.2c-0.6-0.2-1.1-0.3-1.7-0.5c-1.7,0.5-3.5,1-5.2,1.7
				c-0.3,2.5-1,5.4-2.9,7.8c-2.4,3-6.2,4.9-10,4.9c-2.9,0-5.6-1.1-7.5-3c-3.5-3.7-5.6-17.8-2.1-25.4c1.4-7.6,5.7-14.9,12.2-20.4
				c11-9.2,25.8-11.1,36.2-11.1c3.7,0,7.3,0.2,11,0.6c19.6,2.4,38.8,11.6,54.4,26.1c4-0.3,8.1-0.6,12.1-0.6
				c36.2,0,73.5,16.1,99.4,42.8c14.1,14.8,25.6,33.4,32.8,53.9c1.1,3.2,2.2,6.5,3,9.9c-0.3-1.6-0.6-3-1-4.6l-0.2-1
				c-0.8-4.3-1.4-8.7-2.1-13l-0.2-0.8c-2.2-17.2-2.7-34.5-1.6-51.4c4.1-59.1,29.1-114,68.4-150.7c35.5-32.6,82.8-52.6,126.2-52.6
				c9.9,0,19.6,1.1,28.6,3.2h0.3c1.6,0.3,3.2,0.8,4.8,1.1h0.3c1.6,0.5,3.2,1,4.8,1.4c1.6,0.5,3,1,4.6,1.6l0.8,0.3
				c1.4,0.5,2.9,1.1,4.3,1.7l0.8,0.3c1.4,0.6,2.9,1.3,4.5,1.9l0,0c35.9,17,67.1,43.7,89.8,77.1c22.3,32.8,36.2,71.4,40.4,111.6
				c0.2,1.1,0.2,2.1,0.3,3c2.2,25.9,0.2,51.4-6.5,77.7c-1.9,7.5-4.3,15.3-7,23.1c-4.1,12.1-9.4,24.5-15.6,37.5
				c6,0.8,11.8,1.1,17,1.1c3.5,0,7-0.2,10.2-0.5c-1.1-9.5-1.3-17.6-1-25.6c1-18.3,5.4-35.9,12.9-50.7c1.6-3,3.2-6,5.1-9.1
				c-3.3-6.7-5.9-12.6-7.8-18.6c-4.6-14.3-6.4-29.1-4.9-42.6c3-30.4,21.1-57.1,46.4-68.2c5.9-2.5,15.1-5.7,25.3-5.7
				c6.4,0,12.2,1.3,17.3,3.5c7,3.2,12.9,8.6,16.4,14.9c5.1,5.7,8.1,18.6,6,23.1c-1.4,3.5-4.9,5.6-9.1,5.6c-2.5,0-5.2-0.8-7.3-2.4
				c-2.4-1.7-3.8-4-4.8-6.2c-1.3-0.2-2.7-0.3-3.8-0.3c-0.2,0-0.3,0-0.5,0c-0.3,0.3-0.8,0.5-1.1,0.6c-2.4,1.3-4.8,1.4-6.4,1.6
				c-0.5,0-1,0-1.4,0.2c-0.5,0-1.1,0.2-1.6,0.2c-1.7,1-3.3,2.2-4.9,3.7c-2.4,2.4-4.3,5.1-5.7,8.3c0,0.3-0.2,0.5-0.2,0.8
				c-0.3,1.4-0.6,3.2-1.7,5.1c-0.5,2.4-0.8,4.8-0.8,7.3c0.2,0.3,0.3,0.6,0.5,1c0.8,1.9,1.7,4,2.4,6.4c0.5,2.9,0.5,5.9,0,9.1
				c0.5,1.4,1,2.9,1.4,4.3c1.6,0.8,2.9,2.1,3.8,3.3c6.5-1.9,13.2-3,19.7-3.3c1.4,0,3-0.2,4.6-0.2c10.8,0,30.8,2.1,44.7,16.1
				c6.5,6.5,10.8,15.1,11.9,23.7c3.2,8.3,1.3,24-2.9,28c-1.9,1.9-4.5,3-7.2,3c-4.3,0-8.6-2.5-11-6.4c-1.9-3-2.4-6.4-2.7-9.4
				c-2.1-1.1-4-2.1-6-2.7c-0.6,0.2-1.1,0.3-1.7,0.3s-1.1,0.2-1.6,0.2c-2.4,0-4.3-0.6-5.9-1.1c-0.6-0.2-1.1-0.3-1.7-0.5l-0.3-0.2
				c-0.6-0.2-1.3-0.3-1.7-0.5c-2.7,0.3-5.2,1.1-7.8,2.2c-1.4,0.6-2.9,1.4-4.1,2.2c0.5,1.1,1,2.2,1.4,3.5c2.7,2.9,3.8,6.5,4.5,9.4
				c0.6,2.7,1.3,6,0.8,9.4c2.7,15.4,1.7,31.2-2.9,45.5c-3,9.5-7.8,18.6-13.8,26.6c0.8,4.1,1.1,9.2-0.3,13.5c0,0.5,0,1.1-0.2,1.6
				l-0.2,0.6c0,0.3-0.2,0.6-0.3,1c0.3,2.7,0.5,5.2,0.6,7.8c0,0.2,0,0.3,0,0.5c7.9-2.1,15.7-3.5,23.5-4.1c2.7-0.2,5.4-0.3,8.3-0.3
				c32.4,0,61.8,15.9,78.7,42.4c25.4,40.2,19.4,96.5-13.7,125.4c-8.7,7.6-31.6,25.4-55.6,25.4l0,0c-3.2,0-6.4-0.3-9.4-1
				c-4.1-1-7.2-4.3-7.6-8.6c-0.5-3.5,0.8-7,3.2-9.4c0.2-6.7,4.3-12.6,7.8-17.3l0.2-0.2c-0.6-1.4-1.1-3-1.1-4.6
				c0-3.5,1.3-6.7,2.7-9.2c1.4-2.7,3-5.1,4.5-7.3c0.8-1.1,1.6-2.2,2.4-3c0.5-0.6,1-1.3,1.4-1.9c1.3-1.7,2.7-3.7,4.8-5.1
				c1-4.1,1.6-7.9,1.6-11.8c-2.2-1.3-3.8-3.3-4.6-5.9c-1.7-5.6-4.3-10.3-7.6-14.6c-1.9-2.4-2.9-5.4-2.5-8.3
				c-1.9-1.1-3.8-2.1-5.7-2.7c-1-0.3-1.7-0.5-2.7-0.6c-0.3,0.6-0.8,1.1-1.4,1.6c-5.7,5.6-12.2,9.7-17.8,13c-1.7,1.1-3.5,1.9-5.2,2.4
				c0,0,0,0,0,0.2c-3.8,5.4-7.5,11.3-11.1,16.9l-0.6,1c-0.2,0.6-0.2,1.4-0.3,1.9v0.5c-1.1,8.1-5.2,15.6-11.8,21.5
				c-2.5,2.4-5.6,4.5-8.6,5.9c-6.8,8.6-13.7,15.6-20.8,21.5c-3.3,7.2-10.8,11.9-16.5,14.6c-1.6,0.8-3.2,1.4-4.9,2.1
				c-2.9,1.4-5.7,2.5-8.4,3.2c-1.9,0.5-3.8,0.6-5.7,0.6c-2.1,0-4.1-0.2-6-0.6c-6.5,1.3-13.2,1.9-19.9,1.9c-11.9,0-23.8-2.1-35.5-6
				c34,25.4,57.1,53.7,68.8,84.1c14.6,38.2,7.9,78.4-18,108C622.3,792.3,588.1,807.7,555.1,807.7z M158.2,339.5c0.6,0,1.1,0,1.7,0.2
				c5.2,0.5,10.5,1.3,15.7,2.4c0-0.2,0-0.2,0-0.3c0.3-2.2,1.3-4.1,2.9-5.7c-0.3-3.5-0.5-6.7-0.8-9.9c-1-1.1-1.7-2.4-2.2-3.8
				c-0.3-0.6-0.5-1.4-0.8-2.1c-2.1-3.2-2.9-6.8-3.3-9.7c-0.2-0.6-0.2-1.1-0.3-1.7c-0.6-3.2-1.7-9.1,1.3-14c0,0,0-0.2,0.2-0.2
				c-0.8-2.7-1.6-5.2-2.5-7.6c-3.2-2.9-5.7-5.7-7.5-8.7c-1.1,8.7-3,17.3-4.9,25.6C154.9,316.1,152.7,328.9,158.2,339.5z"/>
			<path d="M467.6,19.2c9.2,0,18.4,1,27.5,3c0.2,0,0.2,0,0.3,0c1.6,0.3,3,0.8,4.6,1.1c0.2,0,0.2,0,0.3,0c1.6,0.5,3,0.8,4.6,1.4l0,0
				c1.4,0.5,2.9,1,4.3,1.4c0.2,0.2,0.5,0.2,0.6,0.3c1.4,0.5,2.7,1.1,4.1,1.6c0.2,0.2,0.5,0.2,0.6,0.3c1.4,0.6,2.9,1.3,4.1,1.9l0,0
				c72.2,34.2,118.9,104.9,127,184.1c0.2,1,0.2,2.1,0.3,3c2.4,26.6-0.3,51.7-6.4,75.8c-1.9,7.6-4.1,15.1-6.8,22.6
				c-5.1,14.8-11.4,29.3-18.8,43.7c1.3,0.2,2.5,0.5,3.7,0.6c7.9,1.3,15.3,1.7,21.6,1.7c6,0,11.4-0.5,16.4-1.4
				c-1.3-9.9-2.1-19.9-1.6-30c1-16.7,4.8-33.5,12.2-48.6c1.9-3.8,4.1-7.6,6.5-11.3c-3.5-6.5-6.7-13.4-8.9-20.5
				c-4.1-12.9-6-26.9-4.8-40.4c2.5-26.6,18.1-52.6,43.1-63.8c7-3.2,15.1-5.2,23.1-5.2c5.2,0,10.3,1,15.1,3c6,2.7,11.1,7.5,14.1,13
				c4.3,4,6.4,15.6,5.6,17.6c-0.6,1.6-2.2,2.2-3.8,2.2c-1.4,0-2.9-0.5-4-1.3c-2.1-1.6-3.2-4.3-4.5-6.7c-2.5-0.5-5.1-0.8-7.6-0.8
				c-1,0-1.9,0-2.9,0.2c-0.3,0.5-0.8,1-1.3,1.3c-1.9,1-3.8,0.8-6,1.1c-0.8,0.2-1.7,0.2-2.5,0.3c-2.5,1.3-4.9,3-7.2,5.2
				c-3,3-5.4,6.5-7,10.3c0,0.2,0,0.2-0.2,0.3c-0.5,1.7-0.5,3.5-1.6,4.9l-0.2,0.2c-1,3.5-1.3,7.2-1.3,11l0.2,0.2c1,2.4,2.2,4.6,2.7,7
				c0.5,2.5,0.3,5.2-0.2,7.8c0,0.2-0.2,0.3-0.2,0.5c0.8,2.9,1.9,5.7,3,8.4c0.5,0,1,0.2,1.4,0.3c2.1,1,3.2,3.2,4.1,5.2
				c7.2-2.5,14.8-4.1,22.6-4.5c1.4,0,2.9-0.2,4.3-0.2c14.5,0,30.4,4,40.7,14.3c5.7,5.7,9.5,13.4,10.5,21.3
				c3.2,6.5,0.6,20.7-1.3,22.7c-1,1-2.1,1.3-3.2,1.3c-2.4,0-4.9-1.6-6.4-3.7c-1.7-2.7-1.7-6.4-2.1-9.7c-3.8-2.4-7.6-4.1-11.8-5.2
				c-0.6,0.5-1.3,0.8-2.1,0.8c-0.3,0-0.6,0-1,0c-2.2,0-4.1-1-6.4-1.4c-1.1-0.3-2.1-0.5-3-0.8c-3.5,0.3-7,1.3-10.5,2.9
				c-3.2,1.4-6.2,3.3-8.9,5.4c0.3,0.5,0.5,1,0.8,1.6c1.1,2.2,1.9,4.6,2.9,7c2.2,1.7,3.2,4.5,3.8,7.5c0.5,2.4,1.1,5.6,0.5,8.1
				c2.7,14.5,2.1,29.6-2.4,43.9c-3.2,9.9-8.1,18.9-14.6,26.9c1.1,4.6,1.7,10.2-0.2,14c0.2,0.5,0.2,0.8,0,1.3c0,0.2-0.2,0.5-0.2,0.6
				c-0.2,0.5-0.3,1-0.5,1.4c0.3,3,0.6,5.9,0.8,8.9c0.2,2.5,0.2,5.1,0.2,7.5c9.5-3,19.2-5.2,29.3-6c2.5-0.2,5.2-0.3,7.8-0.3
				c29.9,0,57.6,14,73.9,39.9c22.4,35.6,20.4,89.5-12.6,118.3c-13,11.4-33.2,24-52,24c-2.7,0-5.6-0.3-8.3-0.8
				c-4.5-1-4.6-7.5-0.3-9.7c0.2,0,0.3-0.2,0.3-0.2c-1.7-7.3,5.1-14.3,8.9-20.2c-1.4-1.1-2.4-2.9-2.4-4.6c0-2.2,1-4.5,2.1-6.4
				c1.3-2.4,2.7-4.6,4.3-6.8c1.1-1.7,2.5-3.2,3.8-4.8c1.1-1.6,2.2-3,3.8-4.1c0.3-0.3,0.8-0.5,1.1-0.6c1.7-6.4,2.7-12.9,2.2-19.4
				c-2.1-0.3-4.1-1.4-4.8-3.7c-1.9-6-4.6-11.4-8.6-16.4c-1.7-2.2-1.7-4.9-0.6-7.2c-3-2.5-6.5-4.5-10.3-5.7c-2.2-0.6-4.5-1-6.5-1
				c-0.6,0-1.3,0-1.7,0.2c-0.2,1.3-0.5,2.4-1.3,3.2c-5.1,4.8-10.8,8.6-16.9,12.2c-2.1,1.3-4,1.9-5.7,2.1c-0.5,0.6-1,1.3-1.3,1.9
				c-4.3,6.2-8.3,12.6-12.4,19.1c-0.2,1.3-0.3,2.4-0.5,3.5c-1.1,7.2-4.6,13.4-10,18.1c-2.4,2.2-5.4,4.1-8.4,5.7
				c-6.5,8.3-13.5,15.9-21.8,22.4c-2.2,6-8.9,10.5-14.5,13c-1.4,0.6-3,1.3-4.8,1.9c-2.4,1.3-4.9,2.2-7.5,2.9
				c-1.4,0.3-2.9,0.5-4.5,0.5c-1.9,0-4-0.3-5.9-0.8c-6.5,1.4-13.4,2.1-20,2.1c-13.2,0-26.6-2.7-39.1-7.8
				c-17.6-7.2-32.3-18.4-44.7-32.3c-3.3-2.1-6.7-4.5-9.9-7c10.5,21.5,35.5,36.6,54.1,50.2c28.5,21.1,54.9,48.6,67.7,82.2
				c13.5,35.1,8.1,73.8-17,102.2c-20.7,23.4-52.9,38-84.7,38c-17.2,0-34-4.3-48.8-13.7c-19.1-12.1-43.1-34-44.7-58.3
				c-0.2-3.3,2.7-5.4,5.7-5.4c1.7,0,3.5,0.6,4.8,2.1c0.2,0.2,0.2,0.2,0.3,0.3c2.1-1.1,4.3-1.6,6.5-1.6c6.2,0,12.9,3.2,18.4,4.8
				c0.8-1.9,2.4-3.5,4.3-4.1c1-0.3,2.1-0.5,3-0.5c1.6,0,3.2,0.3,4.6,0.6c3,0.6,5.9,1.6,8.9,2.4c2.2,0.6,4.3,1.7,6.5,2.5
				c2.1,0.6,4.1,1.4,5.7,2.9c0.5,0.3,0.8,0.8,1,1.1c7.5,0,14.9-1.1,21.9-3.8c-0.3-2.4,0.3-4.9,2.4-6.4c6-4,11.1-8.7,15.3-14.8
				c1.4-2.2,3.8-3.2,6-3.2c0.5,0,1,0,1.6,0.2c1.7-4.1,2.9-8.6,2.9-13.2c0-3.5-0.5-6.5-1.6-9.4c-0.5,0.2-1.1,0.2-1.6,0.2
				c-1,0-1.7-0.2-2.4-0.6c-6.8-4-13-9.1-18.9-14.5c-2.1-1.9-3.3-3.8-4.1-5.6c-0.8-0.3-1.7-0.6-2.5-0.8c-8.1-2.7-16.5-5.1-24.8-7.5
				c-1.4,0.3-2.7,0.5-4,0.6c-1.6,0.2-3.2,0.3-4.6,0.3c-6.5,0-12.7-1.9-18.4-5.4c-3.2-1.9-6.4-4.5-8.9-7.3
				c-11.1-4.5-21.8-9.7-31.6-16.7c-7.3-0.5-14.3-6.4-18.9-11.6c-1.3-1.3-2.4-2.9-3.7-4.5c-2.2-2.2-4.1-4.6-5.6-7.2
				c-1.7-3.2-3-7.5-3-11.4c-4.1-7.6-7.3-15.7-9.5-24.2c-6.7,8.4-14.5,15.9-22.7,22.3c-17.3,13-38.6,21.8-59.9,23.5
				c-1.9,1.7-4.1,3.2-6.2,4.1c-3.5,1.7-7.5,2.5-11.4,2.5c-7,0-14-2.9-18.3-8.6c-0.6-0.8-1-1.7-1.1-2.7c-1.4-0.5-2.9-1.1-4.3-1.7
				c-5.2-0.8-10.3-1.9-15.3-3.3c-1.3,5.6-6,8.4-11.4,8.4c-0.8,0-1.4,0-2.2-0.2c-3.5-0.5-6.8-1.9-9.9-3.8
				c-7.6-2.7-13.8-9.5-15.1-17.8c-0.3-2.5,0.2-4.8,1.1-6.5c-6.5-5.4-12.2-11.4-17.5-18.1c-0.6,0.2-1.3,0.2-1.9,0.2
				c-1.4,0-3-0.3-4.6-0.8c-0.3-0.2-0.6-0.3-1-0.3c-2.4-0.3-4.6-1.4-6.5-2.9c-2.4-1.9-5.6-5.9-7.8-10.3c-3.5-4.9-5.2-11.4-3.2-16.4
				c0.3-2.7,1.1-5.2,2.9-7.2c-3.2-7-6.2-14-9.4-21.1c-1,0.2-1.9,0.3-2.9,0.3c-2.1,0-4.1-0.5-6.2-1.4c-11.9-6.2-18.9-28-12.2-40.5
				c-3.8-5.9-8.1-12.1-14.1-15.4c-0.3-0.2-0.6-0.3-1-0.5c-1.1,5.6-6,10.3-10.2,14c-5.9,5.1-13.8,9.9-21.6,10.3c-0.3,0-0.6,0-1,0
				c-2.2,0-4.3-0.5-6.2-1.3c-2.2,4.9-4,10.2-5.4,15.3c-0.5,1.7-1,3.5-1.4,5.2c0.3,0.2,0.6,0.5,1,0.6c0.3,0.2,0.6,0.3,1,0.5
				c8.7,5.1,4.1,36.7-7.9,36.7c-0.5,0-1,0-1.6-0.2c-3.7,10.5-4.8,17.8-7.3,29.7c0.6,1.4,1.1,2.9,1.7,4.1c1,2.1-1.6,7.2-3.3,7.2
				c-0.2,0-0.5,0-0.6-0.2c-0.5,0.6-1.3,0.8-2.1,0.8c-3.2,0-7.8-3.8-10.2-7c-6.8-9.2-12.9-19.1-18.1-29.3
				c-19.9-40.4-25.4-89.8-4-130.8c8.4-16.2,20.4-30.4,34.7-40.9c-5.2-9.5-8.6-19.7-10.3-30c-1.7-2.5-2.2-5.9-2.7-8.6
				c-0.5-3.3-0.5-6.4,1.3-8.9c0-2.7,0.2-5.4,0.5-7.9s0.6-5.1,1-7.6c-0.2-0.3-0.3-0.8-0.5-1.3c0-0.2,0-0.3-0.2-0.6c0-0.5,0-0.8,0-1.1
				c-2.4-5.1,0.2-13,2.1-17c0.5-1.1,1.7-1.7,3-1.9c0.8-3.7,1.7-7.3,2.4-11c-0.6-0.6-1-1.4-1-2.4c0-0.8,0-1.4-0.2-2.2
				c-0.6-2.1-0.5-4.3-0.3-6.2c0-0.3,0.2-0.8,0.2-1.3c0.3-2.5,0.6-5.2,2.5-7c0.5-0.3,1-0.6,1.4-0.8c0-0.6,0-1.1,0.2-1.7
				c-3.2,2.1-6.4,4.6-9.2,7.3c0.6,4,1.9,8.1,0.5,11.8c-1.3,3.3-4.8,6.4-8.4,6.4c-1,0-1.9-0.2-2.9-0.8c-3-1.6-11-17.2-9.1-25.4
				c-1.4-9.2,1-19.1,6.4-27.3c2.7-4.3,6.2-7.9,10.2-11.3c-0.2-0.2-0.3-0.5-0.5-0.6c0-0.2-0.2-0.2-0.2-0.3c-3.3-3.3-7.2-6.4-11.8-8.6
				c-3.3-1.6-6.7-2.7-9.9-3.2c-1,0.2-1.9,0.3-2.9,0.5c-1.9,0.3-3.5,0.8-5.4,0.8c-0.5,0-1.1,0-1.6-0.2c-0.8-0.2-1.4-0.5-1.9-0.8
				c-3.8,0.6-7.6,2.1-11.3,3.8c-0.3,2.9-0.5,6-2.2,8.3c-1.3,1.6-3.5,2.9-5.7,2.9c-1.3,0-2.5-0.5-3.3-1.4c-1.7-1.7-4-14.3-0.8-19.7
				c1-6.7,4.9-13.2,10.3-17.8c8.6-7.2,20.8-9.9,32.6-9.9c3.5,0,7,0.2,10.2,0.6c20.4,2.5,39,12.6,53.1,26.4c4.8-0.6,9.4-0.8,14.1-0.8
				c36.4,0,71.5,16.5,95.4,41c14.5,14.9,25,33.1,31.5,51.8c2.5,7.2,4.3,14.5,5.7,21.6c3.5-1,7.2-1.7,10.8-2.4
				c-0.3-1.1-0.6-2.2-0.8-3.5c0-0.3-0.2-0.5-0.2-0.8c-0.5-2.1-1-4.3-1.4-6.4c0,0,0,0,0-0.2c-0.5-2.1-0.8-4.1-1.3-6.2
				c0-0.3-0.2-0.6-0.2-0.8c-0.8-4.3-1.4-8.6-2.1-12.9c0-0.3,0-0.5-0.2-0.8c-2.2-16.7-2.7-33.5-1.6-50.2
				c3.8-54.5,26.2-109.4,66.6-147.1C376.5,41.6,422.6,19.2,467.6,19.2 M181,349c0-2.5,0.2-4.8,0.3-6.5c0.2-1.7,1.6-3,3.2-3.8
				c-0.3-5.1-0.8-10.3-1.3-15.4c-1-0.5-1.9-1.4-2.2-2.7c-0.3-1-0.6-1.9-1.1-2.9c-1.6-2.4-2.4-5.4-2.9-7.9c-0.2-0.5-0.2-1.1-0.2-1.6
				c-0.6-3.3-1.3-7.2,0.5-10.2c0.3-0.6,1-1.1,1.4-1.6c-1.1-4.3-2.4-8.4-4-12.6c-0.2-0.2-0.5-0.3-0.6-0.5c-3-2.5-5.7-5.6-7.5-9.1
				c-1.7-3.3-2.1-7.2-3-10.7c0-0.2,0-0.3,0-0.3c-1.7-2.2-3.5-4.3-5.4-6.2c0,0.3,0,0.8,0,1.1c0.5,15.4-2.7,29.9-6,44.7
				c-3,13.8-5.6,29.1,2.9,42.1c1.4,0,3,0.2,4.6,0.3C167,345.9,174,347.1,181,349 M325,404.9c2.9,0,5.9-0.5,8.7-1.3
				c-8.3-3.3-16.7-6-25.4-7.5c-2.5-0.5-5.1-0.6-7.6-0.8c0.5,0.5,1.1,0.8,1.6,1.3C309.4,402,317.2,404.9,325,404.9 M634.6,443.2
				c7.6,0,14.5-3.5,19.7-11c0.5-0.6,1-1.3,1.3-2.1c-15.6,3.3-29.4,5.4-41.7,6.4c2.2,1.3,4.6,2.5,7.2,3.7
				C625.8,442.1,630.3,443.2,634.6,443.2 M313.3,496c0.2,0,0.5,0,0.6,0c1.4-1.9,2.9-3.8,4.1-5.6c0.5-0.6,1-1.4,1.4-2.1
				c-4.9-1-9.7-2.1-14.3-3.3c-2.4-0.3-4.8-0.8-7.2-1.1C302.1,489.9,307.1,496,313.3,496 M467.6,8c-22.9,0-47.4,5.4-70.9,15.9
				c-21.8,9.7-42.4,23.2-59.6,39.3c-40.2,37.7-65.8,94-70.1,154.4c-0.8,10.5-0.8,21-0.3,31.6c-6-10.3-13.2-19.9-21.3-28.1
				c-26.9-27.8-65.5-44.5-103.3-44.5c-3.3,0-6.8,0.2-10.2,0.5c-16.1-14.3-35.6-23.4-55.6-25.8c-3.7-0.6-7.6-1-11.4-1
				c-11.3,0-27.5,2.1-39.7,12.4c-7.3,6-12.2,14.1-14,22.9c-2.2,5.2-2.2,11.3-1.7,15.7c0.6,7.2,2.4,12.2,5.2,15.3c3,3,7,4.8,11.4,4.8
				c5.6,0,11.1-2.7,14.5-7.2c1.7-2.4,2.7-4.8,3.3-7c0.2,0,0.3,0,0.3-0.2c0.3,0,0.5,0.2,0.8,0.2c1.3,0.2,2.4,0.3,3.7,0.3
				c2.2,0,4.1-0.3,5.6-0.6c0.5-0.2,1-0.2,1.3-0.2h0.3c0.3,0,0.6,0,1-0.2c1.7,0.5,3.5,1.1,5.2,1.9c0.3,0.2,0.5,0.3,0.8,0.3
				c-1.1,1.4-2.1,2.9-3,4.3c-6.5,10.2-9.5,22.1-8.3,33.4c-0.8,7,1.6,14.5,3.7,19.7c2.4,5.6,6.2,12.9,11.4,15.7
				c1.4,0.8,2.9,1.3,4.5,1.6c-1.4,4.8-2.5,11.1-0.8,17.2c0,0.5,0.2,1.1,0.2,1.6l0.2,0.5l0,0c-0.3,2.1-0.5,3.8-0.6,5.7
				c-0.2,2.1-0.3,4.1-0.5,6.2c-2.2,5.4-1.6,10.8-1.3,13.2c0.5,3.2,1.1,7.2,3,11c1.4,7.9,3.8,15.7,7.2,23.1
				c-12.4,10.7-22.9,24-30.7,39c-11.1,21.5-16.2,45.5-14.8,71.4c1.3,23.4,7.8,47.4,18.9,69.5c5.2,10.5,11.6,20.8,19.1,30.8
				c3.2,4.3,10.7,11.6,19.2,11.6c1.6,0,3.2-0.3,4.8-0.8c2.7-0.5,6.4-1.9,9.4-6.5c2.7-4,4.6-10.3,2.2-16.1c-0.2-0.3-0.3-0.6-0.3-1
				c0.3-1.1,0.5-2.2,0.6-3.3c1.1-5.7,2.1-10.3,3.5-15.3c6.7-2.9,12.1-9.9,14.8-20c2.2-8.3,3.5-22.7-3.2-31.5
				c0.5-1.4,0.8-2.7,1.3-4.1c0.3,0,0.5,0,0.8,0c12.4-0.8,22.9-8.6,28.1-13c1.7-1.6,3.7-3.3,5.4-5.2c0,0.2,0.2,0.2,0.2,0.3
				c-2.1,7.5-1.6,16.2,1.1,24.8c3.5,11.1,10.2,19.9,18.6,24.2c2.2,1.1,4.5,1.9,6.8,2.4c1.4,3.2,2.7,6.4,4.3,9.5
				c-0.6,1.6-1,3.3-1.3,5.1c-2.5,7.6-0.8,17,4.6,24.8c2.7,5.2,6.7,10.3,10.3,13.4c3.2,2.5,6.7,4.1,10.5,4.9c0.2,0,0.3,0.2,0.5,0.2
				c1.6,0.5,3,1,4.6,1.1c3.3,4,6.8,7.6,10.5,11c0,1.4,0,2.7,0.2,4.1c1.6,11.6,9.9,21.8,21.1,26.2c4.1,2.4,8.6,4,13.2,4.8
				c1.3,0.2,2.7,0.3,4,0.3c6.7,0,12.6-2.5,16.7-6.8c2.1,0.5,4.1,0.8,6.2,1.1c0.2,0.2,0.2,0.3,0.3,0.3c6.2,8.3,16.1,13.2,27.2,13.2
				c5.6,0,11.3-1.3,16.2-3.7c2.1-1,4-2.2,5.9-3.5c21.6-2.5,43.6-11.4,62.2-25.4c4.1-3,7.9-6.4,11.8-9.9c1,2.1,1.9,4.1,2.9,6
				c0.5,4.8,1.9,9.7,4.3,13.8c1.7,3.2,4,6.2,6.7,9.1c1.3,1.7,2.5,3.3,4,4.8c7.5,8.3,15.3,13.2,23.1,14.8
				c8.6,5.7,18.3,10.8,29.4,15.4c2.9,2.7,6,5.2,9.5,7.5c7.6,4.8,15.9,7.2,24.3,7.2c2.1,0,4.1-0.2,6.2-0.5h0.5c0.3,0,0.8-0.2,1.3-0.2
				l0.3,0.2c6.7,1.9,13.7,4,20.4,6.2c1.1,1.6,2.5,3,4.1,4.5c5.7,5.2,12.6,11.3,20.8,16.1l0,0c0,1.1-0.2,2.2-0.3,3.3
				c-3.2,1.3-6,3.5-8.1,6.5c-3.2,4.6-7.2,8.4-12.2,11.9c-2.5,1.7-4.6,4.1-5.9,7c-2.7,0.6-5.4,1-8.4,1.3c-2.4-1.6-4.8-2.5-7-3.2
				c-0.6-0.2-1.4-0.5-2.2-1c-1.3-0.6-2.9-1.3-4.6-1.7c-3-1-6.4-1.9-9.9-2.7c-1.9-0.5-4.3-0.8-7-0.8c-2.2,0-4.5,0.3-6.4,1
				c-1.4,0.5-2.7,1.1-4,1.9c-4.5-1.6-9.9-3.2-15.3-3.2c-1.7,0-3.3,0.2-5.1,0.5c-2.1-0.8-4.3-1.3-6.7-1.3c-4.8,0-9.4,1.9-12.6,5.4
				c-3,3.2-4.6,7.5-4.3,11.9c2.4,34.3,38.8,59.9,49.9,67.1c15.9,10,34.8,15.4,54.9,15.4c34.8,0,70.4-16.1,93-41.8
				c13.5-15.4,22.4-34.2,25.6-54.2c3.2-19.6,0.8-40.1-6.5-59.3c-9.7-25.4-27.2-49.3-51.8-71.2c4.5,0.5,8.9,0.8,13.4,0.8
				c6.7,0,13.4-0.6,19.9-1.9c1.9,0.3,4,0.6,6,0.6c2.4,0,4.8-0.3,7-0.8c3.2-0.6,6.4-1.9,9.5-3.5c1.7-0.6,3.5-1.3,5.1-2.1
				c8.9-4.3,15.3-9.7,18.6-16.1c6.8-5.7,13.5-12.6,20-20.7c3-1.7,5.9-3.8,8.6-6.2c7.5-6.8,12.2-15.4,13.7-24.8v-0.3
				c0-0.3,0.2-0.5,0.2-0.8l0,0c3.2-5.1,6.5-10.2,9.9-15.1c1.6-0.6,3-1.3,4.6-2.2c5.7-3.3,12.2-7.6,18.3-13.2
				c0.3,0.2,0.6,0.3,1.1,0.5c0.5,3,1.7,5.9,3.7,8.4c3,3.7,5.1,7.9,6.7,12.7c0.8,2.7,2.4,4.9,4.3,6.8c-0.2,1.9-0.5,4-1,6
				c-2.1,1.9-3.5,3.8-4.3,5.1c-0.3,0.5-0.8,1-1.3,1.6c-0.8,1-1.7,2.2-2.7,3.7c-1.6,2.4-3.2,4.9-4.8,7.6c-1.7,3.2-3.5,7.2-3.3,11.9
				c0,1.1,0.2,2.4,0.5,3.5c-3,4.3-6.4,9.9-7.2,16.2c-2.5,3.5-3.8,7.8-3.3,12.2c0.8,6.7,5.6,11.9,11.9,13.4c3.3,0.8,7,1.1,10.7,1.1
				c25.9,0,50.1-18.8,59.3-26.7c17.6-15.4,28.6-38.2,30.8-64.1c2.1-24-3.8-49-16.2-68.5c-17.8-28.3-49-45.2-83.3-45.2
				c-2.9,0-5.7,0.2-8.6,0.3c-5.9,0.5-11.9,1.4-18,2.7c0-0.3,0-0.6-0.2-1c0-0.2,0-0.2,0-0.3l0.2-0.6c0.2-0.6,0.2-1.1,0.3-1.7
				c1.1-3.8,1.4-8.1,0.8-13c5.9-8.1,10.3-16.9,13.4-26.4c4.8-14.9,5.9-31.3,3.2-47.4c0.3-3.8-0.3-7.5-1-10.5
				c-0.6-2.9-1.6-6.2-3.7-9.2c1.4-0.5,2.7-1,4.1-1.1c0.3,0,0.6,0.2,1,0.2h0.3c0.3,0.2,0.8,0.2,1.4,0.3c1.7,0.5,4.3,1.3,7.5,1.3
				c0.8,0,1.6,0,2.2-0.2c0.3,0,0.5,0,0.8-0.2c0.5,0.2,0.8,0.3,1.3,0.5c0.5,2.7,1.3,5.7,3.2,8.7c3.5,5.4,9.5,8.9,15.7,8.9
				c4.3,0,8.1-1.6,11.1-4.6c5.7-5.9,7.8-23.2,4.3-33.2c-1.4-9.7-6.2-18.9-13.4-26.2c-15.3-15.4-36.9-17.6-48.5-17.6
				c-1.6,0-3.2,0-4.8,0.2c-5.9,0.3-11.9,1.3-17.8,2.7c-0.3-0.3-0.6-0.6-1.1-0.8c-0.2-0.3-0.2-0.6-0.3-1c0.5-3.5,0.5-6.7-0.2-9.7
				c-0.6-3-1.7-5.6-2.5-7.5c0-1.4,0.3-2.9,0.5-4.1c1.3-2.4,1.7-4.6,2.1-6v-0.2c1.1-2.2,2.5-4.3,4.3-6c1-1,1.9-1.6,2.9-2.2
				c0.2,0,0.3,0,0.5,0c0.3,0,0.6,0,1.1-0.2c1.9-0.2,4.9-0.3,8.1-2.1c1.1,1.7,2.7,3.5,4.8,5.1c3,2.2,6.8,3.5,10.7,3.5
				c6.4,0,11.8-3.3,14.1-8.9c2.9-6.7-0.6-21.1-6.5-28.5c-4.1-7.3-10.7-13.2-18.6-16.9c-5.9-2.7-12.6-4-19.7-4
				c-11.3,0-21.3,3.3-27.7,6.2c-13.8,6.2-25.9,16.5-34.8,30.2c-4.3,6.7-7.8,14-10.3,21.5c-6.5-31.8-19.2-61.8-37.4-88.4
				c-23.4-34.2-55.2-61.5-92.1-79l0,0c-1.4-0.6-2.9-1.3-4.6-2.1l-0.2-0.2l-0.6-0.2c-1.4-0.6-3-1.3-4.5-1.7l-0.5-0.2h-0.2
				c-1.7-0.6-3.3-1.1-4.8-1.6c-1.6-0.5-3.3-1-5.1-1.4l-0.3-0.2c-1.6-0.5-3.3-0.8-4.9-1.3l-0.3-0.2C487.8,9.1,477.8,8,467.6,8
				L467.6,8z M653,285c1.6-7.6,2.9-15.3,3.7-22.9c1.1,2.7,2.2,5.4,3.7,8.1c-1.3,2.2-2.5,4.6-3.8,6.8
				C655.4,279.6,654.1,282.3,653,285L653,285z M162.1,334.3c-3.2-8.6-1.4-18.6,1-29.1c1-4.3,1.9-8.7,2.9-13.2
				c0.3,0.8,0.5,1.4,0.6,2.2c-2.7,6-1.6,12.2-0.8,15.6c0,0.6,0.2,1.3,0.3,1.7c0.6,3.2,1.6,7.3,3.8,11.1c0.2,0.5,0.3,1,0.5,1.4
				c0.5,1.4,1.3,2.9,2.1,4.1c0.2,1.9,0.3,4,0.5,5.9c-0.3,0.5-0.6,1-1,1.4C168.7,335.1,165.4,334.6,162.1,334.3L162.1,334.3z
				 M630.9,350.5c4.9-10.7,9.1-21,12.6-31c0.3-1.1,0.8-2.2,1.1-3.5c-0.6,4.6-1.1,9.2-1.4,13.8c-0.3,6.5-0.3,13.4,0.3,20.8
				c-1.3,0-2.7,0.2-4,0.2C636.8,351,633.8,350.8,630.9,350.5L630.9,350.5z"/>
		</g>
		<g>
			<g>
				<path class="st1" d="M752.4,156.5c-14.3-9.2-32.8-6.2-46.1,3.3c-15.7,11.3-22.7,29.4-22.6,48.3c0,21.9,8.4,42.3,16.5,62.2
					c8.3,20.4,18.3,44.5,11.3,66.6c-7.8,25.1-131.8,52.9-156.4,51.5c-3.7-0.2-6.8,3.8-5.7,7.3c8.1,25.1,136.4,5.7,155-2.5
					c21.1-9.4,37.2-28,44.4-49.9c7-21.9,4.8-45.6-4.8-66.5c-10.3-22.7-28.8-42.3-32.8-67.6c-1.9-12.1,0.8-24.6,9.5-33.4
					c9.2-9.2,21-9.4,32.9-5.9c2.2,0.6,3.8-2.2,2.2-3.8c-0.5-0.6-1.1-1.1-1.7-1.7C755.5,161.9,755.4,158.4,752.4,156.5z"/>
				<path class="st2" d="M754.8,157c-2.9-5.7-8.1-10.3-14.1-13c-11.9-5.4-26.6-2.9-38.2,2.2c-25,11.1-40.5,37.2-43.1,63.8
					c-1.3,13.5,0.6,27.5,4.8,40.4c4.5,13.7,11.6,25.6,18.9,37.8c7,11.8,14.1,25,10.5,39.1c-2.9,11.1-13,42.6-75.8,33.1
					c-18.4-2.7-50.1-13.2-58.5-13.8c-25-1.7-35,15.3-37,27.5c-4.5,28.1,15.3,85.9,145.3,53.3c30.4-7.6,58.5-39,66.5-60.6
					c9.4-25.6,13.8-52.1,3.7-77.3c-11.4-28.3-35.1-52.1-39.7-83.1c-1.7-12.1,0.2-25.6,7.6-35.6c6.8-9.2,18.6-13.8,29.9-11.1
					c3.5,0.8,6.8,2.4,9.5,4.6c0.6,0.8,1.1,1.6,1.7,2.4c1.9,2.9,2.9,6.8,5.6,8.9c2.5,1.9,6.7,1.9,7.9-1
					C761.3,172.6,759,161,754.8,157z"/>
				<g>
					<path class="st3" d="M744.3,282.4c-2.2-0.8-5.1,1.4-4.9,3.7c0.3,5.2,1,13,5.7,16.2c0.3,0.2,0.6,0.3,1,0.3
						c0.2,0.2,0.5,0.3,0.6,0.3s0.2,0,0.3,0c0.8,0.3,1.9,0,2.5-0.6c2.7-2.9,1.9-7.8,1.1-11.3C749.5,287.4,748.2,283.9,744.3,282.4z"
						/>
					<path class="st3" d="M733.1,253.3c-2.1-2.2-6.5-0.6-6.2,2.5c0.6,6.2,3,12.4,7.6,16.9c2.7,2.5,6.7,0.2,6-3.5
						c0-0.2,0-0.3-0.2-0.5c0-0.3-0.2-0.6-0.5-1C740.4,262.7,735.8,256.2,733.1,253.3z"/>
					<path class="st3" d="M717.4,226.8c-1.7-0.8-3.5-0.2-4.3,1.4c-0.3,0.3-0.6,0.6-0.8,1.1c-1.7,4.9,2.4,13.4,7,15.4
						c2.5,1.1,6.4-0.6,5.2-4c-0.8-2.5-1.4-5.2-2.5-7.8C721,230.9,719.8,228.1,717.4,226.8z"/>
					<path class="st3" d="M705,202.6c-2.5,4.9-2.1,11.8,1.6,16.1c0.6,0.6,1.3,1.1,2.1,1.1c0.2,0,0.3,0.2,0.5,0.2
						c1.7,0.5,3.8-0.5,4.3-2.4c0.5-2.5,0.6-5.2,0.2-7.8c-0.5-2.5-1.7-4.8-2.7-7C709.6,200.4,706.1,200.6,705,202.6z"/>
					<path class="st3" d="M711.7,174.2c-5.6,1.7-8.9,10.2-7.8,15.6c0.3,1.6,1.7,2.9,3.3,3.3c1.7,0.5,3.7-0.2,4.8-1.6
						s1.3-3.2,1.6-4.9c0.8-2.9,2.7-5.6,2.9-8.6C716.4,175.6,713.9,173.4,711.7,174.2z"/>
					<path class="st3" d="M736.3,163c-2.4-1.4-4.8-1-7.3-0.6c-2.4,0.3-4.6,1.1-6.2,3c-1.4,1.6-1.1,4.8,1.3,5.1c2.2,0.3,4,0,6.2-0.2
						c2.1-0.3,4-0.2,6-1.1C738.7,168,738.7,164.5,736.3,163z"/>
				</g>
				<g>
					<path class="st4" d="M745.4,285.8c-0.8-0.2-2.1,0-2.4,1c-0.8,1.7-0.3,2.9,0.3,4.6c0.5,1.4,1,2.9,1.4,4.3c0.3,1,1,1.7,1.9,1.9
						c0.8,0.2,1.4,0.2,2.1-0.3c0.8-0.5,1.4-1.4,1.4-2.4c-0.2-1.9-0.5-3.5-1.3-5.2C748.2,288.2,747.4,286.1,745.4,285.8z"/>
					<path class="st4" d="M732.7,255.1c-1-0.2-1.7,0.8-2.1,1.6c-0.6,1.6,0,2.7,0.8,4.1c0.6,1.4,1.4,3,2.1,4.5c0.8,1.7,2.1,5.6,4.8,4
						c2.4-1.4,0.8-5.6,0.2-7.6C737.3,258.9,735.8,255.4,732.7,255.1z"/>
					<path class="st4" d="M718,229.5c-1,0-1.6,0.6-1.9,1.4c-0.6,1.6,0.5,3.3,1.1,4.9c0.6,1.6,1.1,3.5,2.1,4.9
						c1.3,2.1,4.6,1.4,4.6-1.3c0.2-2.1-0.8-4.3-1.7-6.2C721.4,231.6,720.3,229.7,718,229.5z"/>
					<path class="st4" d="M710.2,204.7c-1-0.6-2.1-0.2-2.7,0.6c-1,1.3-1,2.7-0.6,4.3c0.2,1.4,0.3,3,0.8,4.3c1.1,2.9,5.4,2.7,5.6-0.6
						c0-1.6-0.3-3.2-0.6-4.8C712.1,206.9,711.7,205.6,710.2,204.7z"/>
					<path class="st4" d="M711.5,179.3c-1.7,0.3-2.9,3-3.2,4.6c-0.2,0.3-1,3.7,0.2,3.7c1.4-0.2,2.4-2.1,2.9-3.2
						c0.6-1.3,1.6-3.5,0.6-4.8C711.8,179.4,711.7,179.3,711.5,179.3z"/>
					<path class="st4" d="M733.5,166.2c-0.8-0.2-1.7,0-2.7-0.3c-1-0.3-1.6-0.5-2.5-0.5c-0.6,0-3,0.6-2.4,1.7c0.5,1.1,2.1,1,3.2,0.8
						c0.6-0.2,1.3-0.5,1.7-0.8c0.8-0.5,1.7-0.5,2.5-0.8C733.5,166.4,733.6,166.2,733.5,166.2z"/>
				</g>
				<g>
					<path class="st5" d="M673.2,239.7c-3.2,0.3-5.6,3-6,6c-0.2,1.1-0.2,2.1,0.2,3c-0.2,4.3,2.2,9.1,5.1,11.6
						c2.2,1.9,5.4,2.5,8.1,1.1c2.9-1.7,3.2-4.8,2.9-7.8C682.6,248.6,679.7,239,673.2,239.7z"/>
					<path class="st5" d="M673,223.9c-1.6-1.4-3.8-1.9-5.6-1c-1.7,1-2.7,2.9-2.2,4.8c0,0.2,0.2,0.5,0.3,0.6c0,1.4,0.3,2.9,0.8,4
						c0.8,1.6,2.2,2.5,4.1,2.4c2.2-0.2,3.5-1.6,4.1-3.7C675.4,228.7,675.3,225.8,673,223.9z"/>
					<path class="st5" d="M684,231.1c-1-0.5-1.9-0.6-2.9-0.3c-0.5,0.2-1.1,0.5-1.4,1c-0.3,0.3-0.6,0.6-1,1.1
						c-0.3,0.6-0.6,1.6-0.6,2.4c0.2,1.1,0.5,2.4,1.4,3c0.5,0.5,1,0.8,1.6,1c0.5,0.2,1,0.2,1.4,0c1-0.2,2.2-0.6,2.7-1.7
						c0.6-1.3,1-2.5,0.5-4C685.4,232.7,685,231.6,684,231.1z"/>
					<path class="st5" d="M673,195.9c-2.7-0.6-5.4,1.3-6.4,3.8c-0.5,1.3-0.6,2.5-0.5,3.8c-0.8,2.4-1,5.1-0.6,7.5
						c0.3,3.2,2.5,6.2,6,5.6c3-0.6,4.3-3.5,5.1-6.2C678.1,206.3,678.4,197.4,673,195.9z"/>
					<path class="st5" d="M678.4,178.5c-1.4,0-2.7,0.6-3.5,1.9c-0.5,0.8-0.6,1.7-0.5,2.5c-0.3,0.6-0.3,1.3-0.3,2.1
						c0.5,2.4,3.5,3.3,5.4,2.2c1.3-0.8,2.4-2.2,2.7-3.7C683.1,181,681,178.5,678.4,178.5z"/>
					<path class="st5" d="M688,158.1c-2.7,1.9-5.2,4.3-5.6,7.6c-0.8,1.3-1.4,2.7-1.9,4.3c-1.1,3.3,2.9,5.6,5.6,4.3
						c5.6-2.4,13-9.1,10.3-15.9C694.8,154.5,690.2,156.5,688,158.1z"/>
					<path class="st5" d="M703.7,152.1c-1.3,0.5-2.2,1.9-1.9,3.3c0,0.5,0.2,1,0.5,1.3c0.3,0.3,0.6,0.6,1,1c0.6,0.5,1.6,0.5,2.4,0.3
						c0.8-0.2,1.4-0.8,1.9-1.4c0.5-0.8,0.5-1.7,0.2-2.7C707.1,152.1,705.3,151.4,703.7,152.1z"/>
					<path class="st5" d="M691,261.4c-1.6-0.5-3.5,0.3-4.5,1.7c-1.1,2.1-1.7,4.9-1.1,7.3c0,2.2,0.6,4.5,1.9,6.2
						c2.2,3.3,6.7,6.4,10,2.2c2.2-2.9,1.6-7.6,0.6-10.8C696.9,264.9,694.5,262.2,691,261.4z"/>
					<path class="st5" d="M697.2,290.2c-0.8-0.2-2.1-0.2-2.9,0.3l0,0c-1.4,0.6-2.2,2.1-2.2,3.7c0,0.3,0,0.8,0.2,1.1
						c0.2,0.6,0.3,1,0.6,1.4s0.8,0.8,1.3,1.1c0.2,0.2,0.8,0.3,1,0.5h0.2c0.6,0.2,1.3,0.2,1.9,0c0.5-0.2,1-0.3,1.3-0.6
						c1-0.8,1.4-1.7,1.6-3c0-0.2,0-0.2,0-0.3c0-0.3,0-0.8-0.2-1.1c-0.2-0.5-0.3-1-0.5-1.3C699,291.2,698.2,290.4,697.2,290.2z"/>
					<path class="st5" d="M703.4,283.5c-1.4,2.1-1.6,5.2-0.2,7.5c0,0.8,0.2,1.6,0.3,2.5c0.6,2.7,2.1,5.4,3.8,7.5
						c1.4,1.7,4.8,1,5.2-1.3c1.1-5.7-0.3-11-3.3-16.1C707.9,281.3,705,281.5,703.4,283.5z"/>
					<path class="st5" d="M707.2,307.6c-1.7-1.7-4.6-2.2-6.5-0.5c-1.4,1.3-1.4,2.7-1.1,4.3c-0.6,1.9-1,4-1.1,6.2
						c-0.3,2.4-0.5,4.8,0.6,6.8c1.4,2.7,4.8,4,7.6,2.5c2.5-1.3,3.5-4,3.8-6.7C711.2,316.3,710.2,310.6,707.2,307.6z"/>
					<path class="st5" d="M707.2,334.4c-0.5-0.5-1.1-1-1.9-1.1c-0.6-0.2-1.4-0.2-2.1,0c-0.5,0-1,0.3-1.3,0.5c-0.8,0.5-1.3,1-1.7,1.7
						c0,0,0,0.2-0.2,0.2c-0.2,0.3-0.3,0.8-0.5,1.1c-0.2,0.6-0.2,1.3,0,1.9c0,0.5,0.2,0.8,0.3,1.3s0.5,1,0.8,1.3
						c0.3,0.3,0.6,0.5,1,0.6c0.3,0.3,0.8,0.5,1.3,0.6c0.3,0.2,0.8,0.2,1.1,0.2c0,0,0,0,0.2,0c0.5,0,1.1-0.2,1.6-0.3
						c0.5-0.2,1-0.5,1.4-0.8c0,0,0,0,0.2-0.2c0.6-0.6,0.8-1.1,1.1-2.1c0-0.2,0-0.2,0-0.3c0-0.3,0.2-0.8,0.2-1.3c0-0.3,0-0.8-0.2-1.3
						c0-0.2,0-0.2,0-0.3C708.2,335.5,707.9,335.2,707.2,334.4z"/>
					<path class="st5" d="M721.4,321.2c-2.7,0-5.2,1.9-6,4.5c-0.5,1.4-0.2,2.9,0.5,4c-1.1,2.4-1.1,5.4,0,7.5
						c1.4,2.9,4.9,3.8,7.6,2.2c2.2-1.4,3-4,3.5-6.4c0.5-2.1,0.6-4.3,0.5-6.4C726.9,323.5,724.4,321.2,721.4,321.2z"/>
				</g>
			</g>
			<g>
				<path class="st1" d="M24.2,187.7c12.2-13.8,33.7-16.1,52.1-10.3c21.8,6.8,36.6,23.5,43.9,43.1c8.6,22.6,7.3,46.1,6.2,69.2
					c-1.1,23.5-2.5,51.5,13.7,72.2c18.4,23.5,57.6,28.5,84.1,19.6c4-1.3,9.1,1.9,9.1,5.9c1,28.5-39.6,33.4-63.3,30.4
					c-27-3.5-52-17.8-68.5-38.3c-16.4-20.5-23.2-45.6-20.8-70c2.5-26.6,15.1-52.3,9.5-79.5c-2.7-13-10.5-25.1-23.7-31.6
					c-13.8-6.7-26.7-3.5-38.5,3.8c-2.2,1.3-5.1-1.1-4-3.3c0.3-0.8,0.8-1.6,1.3-2.2C22.8,194.4,21.5,190.7,24.2,187.7z"/>
				<path class="st2" d="M391.6,332.8c-3.3-4.5-7.2-8.3-11.8-11.4c-21.9-15.3-48.6-23.5-75.4-23.2c-31.5,0.5-58.8,12.9-83,32
					c-17.5,13.8-46.3,43.6-65.7,16.2c-9.5-13.5-6.8-29.3-3.7-43.6c3.3-14.8,6.5-29.3,6-44.7c-0.5-14.6-3.8-29.6-10.7-43.1
					c-13.4-26.7-40.7-49-72.7-52.9c-14.8-1.9-31.8,0-42.9,9.2c-5.6,4.6-9.4,11-10.3,17.8c-3.2,5.4-1,18,0.8,19.7
					c2.5,2.5,7,1.3,9.1-1.4c2.2-2.9,1.7-7.3,2.7-10.8c0.3-1,0.6-1.9,1-3c2.2-3.2,5.2-5.7,8.7-7.6c11.3-6,26.2-4.8,37.4,2.5
					c12.1,8.1,19.6,21.5,22.4,34.5c7.2,33.4-9.7,65-11.1,97.6c-1.3,29.1,10.8,57.7,34.3,78.7c20.5,18.3,54.9,32.3,82.8,26.9
					c14.8-2.9,29.3-14.8,43.4-20.4c17.8-7.2,35.8-13,55.2-9.7c13.2,2.2,25.8,7.3,38,12.9c9.9,4.6,20.2,9.5,31,8.9
					C415.6,415.5,407.1,353.3,391.6,332.8z"/>
				<g>
					<path class="st3" d="M82.6,315.3c2.2-1.6,6-0.2,6.8,2.4c1.7,5.4,4.1,13.8,0.2,18.4c-0.2,0.3-0.5,0.5-0.8,0.6
						c-0.2,0.2-0.3,0.5-0.6,0.6c-0.2,0-0.2,0.2-0.3,0.2c-0.8,0.5-2.1,0.6-3,0.2c-4.1-2.1-5.1-7.5-5.6-11.3
						C78.6,322,78.7,318,82.6,315.3z"/>
					<path class="st3" d="M83.4,282c1.3-2.9,7-2.7,7.9,0.8c1.7,6.5,1.6,13.7-1.7,19.6c-2.1,3.5-7.3,2.1-8.1-1.7c0-0.2,0-0.3-0.2-0.6
						c0-0.5,0-0.8,0-1.1C79.1,293.9,81.6,285.8,83.4,282z"/>
					<path class="st3" d="M90.4,249.8c1.6-1.4,3.8-1.1,5.2,0.2c0.5,0.2,1,0.5,1.4,1c3.8,4.5,2.7,14.6-1.6,18.1
						c-2.4,1.9-7.3,1.1-7.5-2.5c-0.2-3-0.5-5.7-0.3-8.7C87.8,255.1,88.1,251.7,90.4,249.8z"/>
					<path class="st3" d="M94.5,221.2c4.8,4.3,6.8,11.4,4.6,17c-0.3,1-1.1,1.4-1.9,1.7c-0.2,0.2-0.3,0.2-0.3,0.3
						c-1.7,1-4.5,0.6-5.6-1.3c-1.6-2.5-2.9-5.1-3.2-7.9c-0.5-2.7,0.2-5.4,0.3-8.1C88.4,220.3,92.6,219.5,94.5,221.2z"/>
					<path class="st3" d="M76,193.9c6.8,0.2,13.8,7.8,14.8,13.8c0.3,1.7-0.8,3.5-2.4,4.5c-1.7,1.1-4.1,1-6-0.3
						c-1.9-1.1-2.5-3-3.8-4.6c-2.1-2.9-5.1-4.9-6.5-7.9C71.1,196.7,73.2,193.7,76,193.9z"/>
					<path class="st3" d="M44.4,189.7c2.1-2.1,4.9-2.5,7.9-2.9c2.7-0.3,5.6-0.2,7.9,1.3c2.1,1.3,3.2,4.5,0.6,5.7
						c-2.2,1.1-4.5,1.3-7,1.6c-2.4,0.3-4.5,1.1-7,0.6C43.8,195.6,42.3,191.8,44.4,189.7z"/>
				</g>
				<g>
					<path class="st4" d="M82.6,319.2c1-0.5,2.2-0.5,3,0.3c1.6,1.6,1.4,2.9,1.4,4.9c0,1.6,0.2,3.2,0.2,4.9c0,1-0.3,2.1-1.3,2.5
						c-0.8,0.3-1.4,0.5-2.4,0.3c-1.1-0.2-2.2-1-2.4-2.1c-0.6-1.9-0.8-3.8-0.6-5.7C80.3,322.3,80.3,320.1,82.6,319.2z"/>
					<path class="st4" d="M84.6,283.5c1.1-0.5,2.2,0.3,3,1c1.3,1.4,1,2.9,0.8,4.6c-0.2,1.7-0.3,3.5-0.5,5.2
						c-0.2,1.9-0.2,6.5-3.7,5.6c-3.2-0.8-3.2-5.6-3.2-7.9C81,289,81.3,285,84.6,283.5z"/>
					<path class="st4" d="M90.7,252.9c1-0.3,1.9,0.2,2.7,1c1.4,1.6,0.8,3.7,0.6,5.4c-0.2,1.9,0,3.8-0.5,5.7
						c-0.6,2.5-4.5,2.9-5.6,0.2c-1-2.1-0.8-4.6-0.5-6.8C87.8,256,88.3,253.7,90.7,252.9z"/>
					<path class="st4" d="M89.6,224.9c0.8-1,2.2-0.8,3.2-0.2c1.6,1,2.1,2.5,2.4,4.1c0.3,1.4,0.8,3.2,0.8,4.6c0,3.2-4.9,4.5-6.4,1
						c-0.6-1.6-0.8-3.5-1.1-5.1C88.3,227.7,88.3,226.2,89.6,224.9z"/>
					<path class="st4" d="M78.1,199.1c2.1-0.3,4.3,2.2,5.2,3.7c0.2,0.3,2.5,3.5,1.3,3.7c-1.6,0.3-3.3-1.4-4.5-2.4
						c-1.1-1.1-3-3-2.5-4.6C77.8,199.3,78,199.1,78.1,199.1z"/>
					<path class="st4" d="M48.9,192.1c1-0.5,1.9-0.6,2.9-1.1c1-0.5,1.4-1,2.5-1.3c0.8-0.2,3.5-0.3,3.3,1.1c-0.2,1.3-1.9,1.7-3.2,1.7
						c-0.8,0-1.6-0.2-2.4-0.3c-1.1-0.2-2.1,0-3,0C48.9,192.4,48.7,192.1,48.9,192.1z"/>
				</g>
				<g>
					<path class="st5" d="M144.1,249.8c3.7-0.6,7.3,1.4,9.1,4.5c0.6,1.1,1,2.1,1,3.2c1.7,4.3,1.1,10-1.1,13.4
						c-1.7,2.5-4.9,4.3-8.4,3.5c-3.8-1-5.4-4-6-7.2C137.3,261.9,136.6,251.1,144.1,249.8z"/>
					<path class="st5" d="M138,233.6c1.1-1.9,3.3-3,5.9-2.5c2.4,0.5,4.1,2.1,4.5,4.3c0,0.2,0,0.5,0,0.8c0.6,1.4,0.8,3,0.6,4.3
						c-0.3,1.9-1.6,3.3-3.5,3.8c-2.4,0.6-4.6-0.6-6-2.4C137.4,239.2,136.5,236.2,138,233.6z"/>
					<path class="st5" d="M128.8,244.4c0.8-0.8,1.7-1.1,3-1.3c0.6,0,1.4,0.2,2.1,0.5c0.5,0.2,1.1,0.5,1.4,1c0.6,0.6,1.3,1.4,1.6,2.2
						c0.3,1.3,0.5,2.5-0.3,3.7c-0.3,0.6-0.8,1.1-1.4,1.4c-0.5,0.3-1,0.5-1.4,0.5c-1.1,0.2-2.7,0-3.5-1c-1.1-1.1-2.1-2.4-2.2-4
						C127.7,246.3,127.9,245.2,128.8,244.4z"/>
					<path class="st5" d="M127.1,204.8c2.9-1.6,6.4-0.3,8.4,2.1c1,1.1,1.6,2.4,2.1,3.8c1.7,2.2,3,4.9,3.7,7.5c1,3.3-0.5,7.2-4.6,7.5
						c-3.5,0.3-6.2-2.2-8.1-4.8C125.5,216.9,121.7,207.7,127.1,204.8z"/>
					<path class="st5" d="M114.2,188.3c1.6-0.3,3.3-0.2,4.6,0.8c1,0.6,1.4,1.6,1.6,2.5c0.6,0.5,1,1.3,1.1,2.1c0.3,2.7-2.4,4.5-5.1,4
						c-1.7-0.3-3.5-1.6-4.5-2.9C110.1,192.3,111.3,189.1,114.2,188.3z"/>
					<path class="st5" d="M95.8,170.2c3.8,1.1,7.5,3,9.2,6.2c1.4,1.1,2.7,2.4,3.8,3.8c2.5,3.2-1,6.5-4.5,6
						c-7.2-0.8-17.8-5.4-17.6-13.4C86.9,168.4,92.6,169.2,95.8,170.2z"/>
					<path class="st5" d="M76,168.6c1.6,0.2,3.2,1.3,3.3,2.9c0.2,0.5,0.2,1,0,1.4s-0.5,1-0.8,1.3c-0.6,0.6-1.4,1-2.4,1
						c-1,0-1.9-0.3-2.5-1c-1-0.6-1.3-1.7-1.3-2.7C72.4,169.7,74,168.4,76,168.6z"/>
					<path class="st5" d="M132.8,277.7c1.6-1,4-0.8,5.6,0.5c2.1,1.7,3.8,4.5,4.1,7.2c0.8,2.2,1,4.8,0.3,7c-1.1,4.1-4.9,8.6-10,5.2
						c-3.5-2.2-4.8-7.3-4.9-11C127.9,283.1,129.5,279.6,132.8,277.7z"/>
					<path class="st5" d="M137.4,309.3c0.8-0.5,2.2-0.8,3.2-0.5l0,0c1.7,0.2,3.3,1.4,3.8,3c0.2,0.3,0.3,0.8,0.3,1.3
						c0,0.6,0,1.1-0.2,1.7c-0.2,0.5-0.5,1.1-1,1.6c-0.2,0.2-0.6,0.6-1,0.8c0,0-0.2,0-0.2,0.2c-0.6,0.3-1.3,0.6-2.1,0.6
						c-0.6,0-1.1,0-1.7-0.3c-1.4-0.5-2.4-1.4-2.9-2.7c0-0.2,0-0.2-0.2-0.3c-0.2-0.3-0.2-0.8-0.3-1.1c0-0.5,0-1,0.2-1.4
						C135.8,310.7,136.5,309.8,137.4,309.3z"/>
					<path class="st5" d="M127.9,304.2c2.4,1.6,3.8,4.9,3.2,7.6c0.3,0.8,0.5,1.6,0.6,2.7c0.5,3-0.2,6-1.3,8.9
						c-1,2.2-4.9,2.4-6.2,0.2c-3.5-5.6-4.1-11.4-2.5-17.5C122.1,303.3,125.5,302.5,127.9,304.2z"/>
					<path class="st5" d="M133.3,330.1c1.3-2.2,4.1-3.7,7-2.4c2.1,1,2.7,2.4,3,4c1.4,1.9,2.5,3.8,3.7,6c1.3,2.4,2.4,4.8,1.9,7.3
						c-0.6,3.3-3.8,5.6-7.5,4.9c-3.3-0.6-5.4-3-6.8-5.7C132.3,340.3,131.1,334.1,133.3,330.1z"/>
					<path class="st5" d="M143.8,357.8c0.3-0.8,1-1.3,1.6-1.7c0.6-0.5,1.4-0.6,2.4-0.6c0.5,0,1.1,0,1.6,0.2c1,0.3,1.7,0.6,2.5,1.3
						l0.2,0.2c0.3,0.3,0.6,0.6,1,1c0.5,0.6,0.6,1.3,0.8,1.9c0.2,0.5,0.2,0.8,0.2,1.4c0,0.6-0.2,1.1-0.3,1.6c-0.2,0.3-0.5,0.6-0.6,1
						c-0.3,0.5-0.8,0.8-1.3,1c-0.3,0.2-0.8,0.3-1.3,0.5h-0.2c-0.6,0.2-1.3,0.2-1.9,0.2c-0.6,0-1.3-0.2-1.9-0.5h-0.2
						c-1-0.5-1.4-1-2.1-1.7c0-0.2-0.2-0.2-0.2-0.3c-0.2-0.3-0.5-0.8-0.6-1.3c-0.2-0.3-0.2-0.8-0.3-1.3c0-0.2,0-0.2,0-0.3
						C143.1,359.4,143.3,358.9,143.8,357.8z"/>
					<path class="st5" d="M122.9,348.4c3-1,6.5,0.3,8.4,2.7c1.1,1.3,1.3,2.9,1.1,4.3c2.1,2.1,3.3,5.2,3,7.6c-0.5,3.3-4,5.6-7.6,4.6
						c-3-0.8-4.8-3.2-6.4-5.6c-1.3-2.1-2.5-4.3-3-6.5C117.7,352.4,119.6,349.4,122.9,348.4z"/>
				</g>
			</g>
			<g>
				<g>
					<path class="st6" d="M796.9,261.4c-12.4-16.9-35-21.5-54.5-16.4c-23.1,6-39.1,23.8-47.4,45.6c-9.5,25.3-8.9,52.5-8.4,78.9
						c0.6,27,1.4,59.3-16.2,81.7c-20,25.4-61.4,27.7-89,15.3c-4.1-1.9-9.5,1.4-9.7,5.9c-1.7,32.6,40.7,41.8,65.8,40.5
						c28.5-1.6,55.2-15.9,73-38c17.8-22.1,25.6-50.4,23.7-78.5c-1.9-30.7-14.6-61.4-7.9-92.2c3.2-14.8,11.6-28,25.8-34.2
						c14.6-6.5,28.1-1.6,40.4,7.6c2.2,1.7,5.4-1,4.3-3.5c-0.3-1-0.8-1.7-1.3-2.7C798.3,269.2,799.7,265.3,796.9,261.4z"/>
					<path class="st7" d="M799.6,263.2c-1-7.8-4.8-15.6-10.5-21.3c-11.4-11.4-29.3-15.1-44.8-14.3c-33.7,1.7-63,25-77.6,54.4
						c-7.5,14.9-11.4,32-12.2,48.6c-1,17.6,2.1,34.7,5.1,52c3,16.7,5.4,35-5.1,49.6c-8.3,11.6-19.9,13.7-33.2,7.9
						c-39.6-17.2-33.2-59.3-58.8-70.3c-47.9-20.5-52.1,7.6-53.9,22.9c-9.2,75,50.7,108.9,78.4,121.3c32.3,14.3,70.7,4.3,96.7-18.3
						c25.4-22.1,38.8-53.9,38.3-87.4c-0.6-37.7-17.5-75.5-9.2-113.2c3.3-14.8,11.4-29.4,24.5-37.7c11.8-7.6,27.5-7.8,39.3,0.3
						c3.7,2.5,6.7,5.7,9.1,9.5c0.3,1.1,0.6,2.2,1,3.5c1,4,0.3,9.1,2.5,12.7c2.1,3.2,6.8,5.1,9.5,2.4
						C800.1,283.9,802.8,269.7,799.6,263.2z"/>
					<g>
						<path class="st8" d="M732.2,402.9c-2.2-1.9-6.4-0.6-7.3,2.1c-1.9,6.2-4.6,15.4-0.6,21.3c0.2,0.3,0.5,0.6,0.8,0.8
							c0.2,0.3,0.3,0.5,0.6,0.8c0.2,0,0.2,0.2,0.3,0.2c1,0.6,2.2,0.8,3.2,0.3c4.3-2.1,5.6-8.1,6.2-12.4
							C736.2,411.1,736.2,406.4,732.2,402.9z"/>
						<path class="st8" d="M732.2,364.6c-1.3-3.5-7.3-3.7-8.3,0.2c-2.1,7.5-2.1,15.6,1.4,22.7c2.1,4.1,7.6,3.2,8.6-1.3
							c0-0.2,0.2-0.5,0.2-0.6c0.2-0.5,0-1,0-1.3C736.5,378.6,733.9,369.1,732.2,364.6z"/>
						<path class="st8" d="M725.8,327.1c-1.6-1.7-4-1.6-5.4-0.3c-0.5,0.2-1.1,0.5-1.4,1c-4.1,4.8-3.2,16.5,1.3,20.8
							c2.4,2.4,7.6,1.9,7.8-2.2c0.2-3.3,0.8-6.7,0.5-10C728.2,333.5,728,329.5,725.8,327.1z"/>
						<path class="st8" d="M722,293.9c-5.1,4.5-7.6,12.6-5.2,19.1c0.3,1.1,1.1,1.7,1.9,2.2c0.2,0.2,0.3,0.2,0.5,0.3
							c1.7,1.3,4.8,1.1,5.9-1c1.7-2.7,3-5.7,3.7-8.9c0.5-3.2,0-6.2,0-9.4C728.5,293.4,724.2,292,722,293.9z"/>
						<path class="st8" d="M742.4,264c-7.2-0.3-14.6,7.8-15.9,14.5c-0.3,2.1,0.8,4.1,2.4,5.2c1.9,1.4,4.3,1.4,6.4,0.3
							c1.9-1.1,2.9-3.2,4.1-5.1c2.2-3,5.6-5.1,7-8.6C747.3,267.6,745.2,264.2,742.4,264z"/>
						<path class="st8" d="M775.7,262.1c-2.1-2.5-5.1-3.3-8.3-4c-2.9-0.6-5.9-0.6-8.4,0.8c-2.2,1.3-3.5,4.9-0.8,6.5
							c2.4,1.4,4.6,1.9,7.3,2.4c2.5,0.6,4.6,1.6,7.3,1.3C776.2,268.8,777.8,264.6,775.7,262.1z"/>
					</g>
					<g>
						<path class="st9" d="M732.2,407.4c-1-0.5-2.4-0.8-3.2,0c-1.7,1.6-1.6,3.2-1.6,5.4c0,1.9-0.2,3.7-0.3,5.6c0,1.1,0.3,2.4,1.3,3
							c0.8,0.5,1.4,0.8,2.4,0.6c1.1-0.2,2.2-1,2.5-2.1c0.6-2.2,1-4.3,1-6.5C734.2,411.2,734.2,408.7,732.2,407.4z"/>
						<path class="st9" d="M730.9,366.4c-1.1-0.6-2.4,0.2-3.2,1c-1.4,1.6-1.1,3.2-1,5.1c0.2,2.1,0.3,4.1,0.5,6
							c0.2,2.2,0,7.5,3.7,6.7c3.3-0.6,3.5-6.2,3.5-8.7C734.6,372.7,734.4,368.1,730.9,366.4z"/>
						<path class="st9" d="M725.3,330.4c-1.1-0.5-2.1,0-2.9,0.8c-1.6,1.6-1,4.1-0.8,6.2c0.2,2.2-0.2,4.5,0.3,6.5
							c0.6,3,4.6,3.7,5.9,0.6c1-2.4,1-5.2,0.6-7.8C728.2,334.4,727.7,331.6,725.3,330.4z"/>
						<path class="st9" d="M727.3,298.5c-0.8-1.1-2.2-1-3.3-0.3c-1.6,1-2.2,2.9-2.7,4.6c-0.3,1.7-1,3.5-1,5.2c0,3.8,5.1,5.4,6.7,1.6
							c0.8-1.7,1-3.8,1.3-5.7C728.5,301.8,728.5,300.1,727.3,298.5z"/>
						<path class="st9" d="M740,269.9c-2.2-0.5-4.6,2.2-5.7,3.8c-0.2,0.3-2.9,3.8-1.4,4.1c1.7,0.5,3.7-1.4,4.8-2.4
							c1.3-1.1,3.3-3.3,2.9-5.1C740.3,270,740.1,269.9,740,269.9z"/>
						<path class="st9" d="M770.8,264.3c-1-0.6-2.1-0.8-2.9-1.4c-1-0.6-1.6-1.3-2.7-1.6c-0.8-0.2-3.7-0.6-3.5,1
							c0.2,1.4,2.1,2.1,3.2,2.2c0.8,0.2,1.6,0,2.4-0.2c1.1-0.2,2.2,0.2,3.2,0.2C771,264.6,771.1,264.5,770.8,264.3z"/>
					</g>
					<g>
						<path class="st10" d="M669.2,322.3c-3.8-1.1-7.6,1.1-9.7,4.3c-0.6,1.1-1,2.4-1.1,3.7c-2.1,4.8-1.4,11.4,0.8,15.6
							c1.7,3.2,5.1,5.4,8.9,4.8c4-0.8,5.7-4.1,6.7-7.6C676.1,336.8,677,324.6,669.2,322.3z"/>
						<path class="st10" d="M676.1,304.2c-1.1-2.2-3.5-3.8-6-3.5c-2.5,0.3-4.5,2.1-4.8,4.6c0,0.3,0,0.6,0,0.8
							c-0.6,1.6-1,3.3-0.8,4.9c0.2,2.2,1.6,4,3.7,4.6c2.5,0.8,4.8-0.3,6.4-2.2C676.5,310.9,677.6,307.4,676.1,304.2z"/>
						<path class="st10" d="M685.4,317.4c-0.8-1-1.9-1.4-3-1.6c-0.6,0-1.4,0-2.1,0.3c-0.6,0.2-1.1,0.5-1.6,1
							c-0.8,0.6-1.4,1.4-1.7,2.4c-0.3,1.4-0.5,2.9,0.3,4.1c0.3,0.8,0.8,1.3,1.4,1.7c0.5,0.3,1,0.6,1.6,0.6c1.3,0.3,2.9,0.2,3.8-0.8
							c1.3-1.1,2.2-2.5,2.4-4.3C686.4,319.8,686.2,318.4,685.4,317.4z"/>
						<path class="st10" d="M688.3,272.1c-2.9-2.1-6.7-1-8.9,1.6c-1.1,1.3-1.7,2.7-2.2,4.1c-1.9,2.4-3.3,5.4-4.1,8.3
							c-1.1,3.8,0.3,8.3,4.6,9.1c3.7,0.6,6.5-2.1,8.6-4.8C689.6,286.1,693.9,276.1,688.3,272.1z"/>
						<path class="st10" d="M702.1,254.3c-1.6-0.6-3.5-0.5-4.8,0.6c-1,0.8-1.6,1.7-1.7,2.7c-0.6,0.6-1,1.3-1.1,2.2
							c-0.5,3,2.4,5.4,5.2,4.9c1.9-0.3,3.7-1.4,4.8-3C706.4,259.2,705.2,255.4,702.1,254.3z"/>
						<path class="st10" d="M722,235.1c-4,1-7.9,2.7-9.9,6.2c-1.4,1.1-2.9,2.5-4.1,4c-2.9,3.3,0.8,7.6,4.5,7.5
							c7.5-0.3,18.9-4.6,18.9-13.8C731.7,233.8,725.5,234.3,722,235.1z"/>
						<path class="st10" d="M743,235.1c-1.7,0-3.3,1.3-3.7,3c-0.2,0.5-0.2,1.1,0,1.6s0.5,1.1,0.8,1.6c0.6,0.8,1.6,1.3,2.5,1.4
							c1,0.2,1.9-0.2,2.7-0.8c1-0.6,1.4-1.9,1.4-3C746.6,236.6,745.1,234.9,743,235.1z"/>
						<path class="st10" d="M680.2,355.4c-1.7-1.3-4.1-1.3-5.9,0.2c-2.2,1.7-4.1,4.9-4.5,7.8c-1,2.5-1.1,5.4-0.5,8.1
							c1,4.9,4.9,10.2,10.5,7c3.8-2.2,5.2-7.9,5.4-12.1C685.4,362.1,683.8,357.8,680.2,355.4z"/>
						<path class="st10" d="M674.6,391.2c-1-0.6-2.2-1.1-3.3-0.8l0,0c-1.9,0-3.5,1.4-4.1,3.2c-0.2,0.5-0.3,1-0.3,1.3
							c-0.2,0.6,0,1.3,0.2,1.9c0.2,0.6,0.5,1.3,1,1.9c0.2,0.2,0.8,0.8,1,1l0.2,0.2c0.6,0.5,1.4,0.8,2.2,0.8c0.6,0.2,1.3,0,1.7-0.2
							c1.4-0.5,2.5-1.4,3.2-2.7c0-0.2,0.2-0.2,0.2-0.3c0.2-0.5,0.3-1,0.3-1.3c0-0.6,0-1.1,0-1.7C676.2,393.1,675.6,392,674.6,391.2z
							"/>
						<path class="st10" d="M684.8,386.3c-2.5,1.7-4.3,5.4-3.5,8.4c-0.3,1-0.6,1.9-0.8,3c-0.5,3.3,0,7,1.1,10.3
							c1,2.7,5.1,3.2,6.5,0.8c4-6.2,4.6-12.9,3.2-19.9C690.8,385.6,687.5,384.5,684.8,386.3z"/>
						<path class="st10" d="M678.6,415.7c-1.3-2.7-4.3-4.6-7.3-3.3c-2.1,1-2.9,2.5-3.2,4.3c-1.6,2.1-2.9,4.1-4.1,6.5
							c-1.3,2.5-2.7,5.2-2.2,8.3c0.5,3.8,3.8,6.7,7.8,6.4c3.5-0.3,5.7-3,7.3-5.9C679.2,427.4,680.7,420.4,678.6,415.7z"/>
						<path class="st10" d="M666.7,446.5c-0.3-0.8-1-1.6-1.7-2.1s-1.6-0.8-2.4-1c-0.6-0.2-1.1-0.2-1.7,0c-1.1,0.2-1.9,0.5-2.7,1.1
							l-0.2,0.2c-0.3,0.3-0.8,0.6-1.1,1.1c-0.5,0.6-0.8,1.4-1,2.2c-0.2,0.6-0.2,1-0.2,1.6c0,0.6,0,1.3,0.3,1.9
							c0.2,0.5,0.5,0.8,0.8,1.3c0.3,0.5,0.8,1,1.3,1.3c0.3,0.3,0.8,0.5,1.3,0.6h0.2c0.6,0.3,1.3,0.3,1.9,0.3c0.6,0,1.3,0,1.9-0.3
							h0.2c1-0.5,1.6-1,2.2-1.7c0-0.2,0.2-0.2,0.2-0.3c0.3-0.5,0.5-1,0.8-1.3c0.2-0.5,0.3-1,0.3-1.4c0-0.2,0-0.2,0-0.3
							C667.3,448.3,667.2,447.8,666.7,446.5z"/>
						<path class="st10" d="M688.8,437.4c-3.2-1.3-6.8-0.2-8.9,2.4c-1.1,1.4-1.4,3.2-1.3,4.8c-2.2,2.2-3.7,5.7-3.3,8.6
							c0.5,4,4,6.7,7.9,5.9c3.2-0.6,5.1-3.2,6.7-5.7c1.4-2.2,2.7-4.6,3.3-7.2C694.2,442.5,692.3,438.9,688.8,437.4z"/>
					</g>
				</g>
				<g>
					<path class="st6" d="M65.4,243.8c10.3-23.1,37.4-34.8,63.8-34.8c31.2,0,57.4,15.7,75,38.2c20.4,26.1,28.5,57.2,36.4,87.8
						c8.1,31,17.6,68,47.4,88.4c33.7,23.1,86.8,13.5,117.8-8.9c4.6-3.3,12.6-1.1,14.3,3.8c12.9,36.7-38,59.8-70.1,65.7
						c-36.6,6.7-75.2-1.7-105.1-21.9c-29.7-20-49-50.1-55.8-82.7c-7.6-35.6-1.7-74.4-20.2-107.8c-8.9-15.9-24-28.5-43.9-31.5
						c-20.7-3-36.2,6.5-48.8,20.7c-2.4,2.7-7.2,0.6-6.7-2.7c0.2-1.1,0.5-2.4,0.6-3.3C66.3,253,63.2,248.9,65.4,243.8z"/>
					<path class="st7" d="M62.7,246.5c-1.4-9.2,1-19.1,6.4-27.3c10.7-16.5,32.3-25.9,52.3-29.6c43.4-7.9,88.1,10,116.4,39.3
						c14.5,14.9,25,33.1,31.5,51.8c7,19.9,8.7,40.1,10.5,60.9c1.7,19.9,4.8,41.7,22.7,55.2c14.3,10.8,31.5,11.4,44.7-0.8
						c11.9-11,20-25.6,35.1-33.4c17.6-9.1,39.1-5.6,53.1,7.5c32.1,29.6,10.5,78.1-20.7,100.3c-36.2,25.9-88.2,25.8-128.5,7.6
						c-39.4-17.6-66.9-50.1-77.1-88.6c-11.4-43.2-2.5-91.4-25.4-132c-8.9-15.9-24.2-30.2-43.4-35.9c-17.5-5.1-37.5-0.6-49.8,11.9
						c-3.8,4-6.7,8.6-8.3,13.5c0,1.4-0.2,2.9,0,4.3c0.2,4.9,2.7,10.5,1,15.3c-1.6,4.3-7,7.9-11.3,5.6
						C68.7,270.4,60.8,254.8,62.7,246.5z"/>
					<g>
						<path class="st8" d="M194,386.3c2.2-2.9,7.9-2.5,9.9,0.3c4.5,6.5,11,16.4,7.8,24.2c-0.2,0.5-0.5,0.8-0.8,1.3
							c-0.2,0.3-0.3,0.6-0.6,1c-0.2,0.2-0.2,0.2-0.3,0.3c-1,1-2.5,1.6-4,1.4c-6.2-1.1-9.9-7.6-11.9-12.4
							C191.5,396.7,190,391.5,194,386.3z"/>
						<path class="st8" d="M181.3,342.4c0.6-4.3,7.9-6.4,10.7-2.2c5.1,7.9,7.8,17.3,5.7,26.4c-1.3,5.4-8.7,5.9-11.3,1.1
							c-0.2-0.2-0.3-0.5-0.3-0.6c-0.3-0.5-0.3-1-0.3-1.4C180.5,359.7,180.5,348.1,181.3,342.4z"/>
						<path class="st8" d="M177.2,297.9c1.4-2.4,4.6-3.2,6.8-1.9c0.8,0,1.6,0.3,2.2,0.6c6.8,4.3,9.5,18,5.2,24.2
							c-2.4,3.5-9.1,4.5-10.7-0.3c-1.3-3.8-3-7.3-4-11.3C176.2,305.6,175.1,301.2,177.2,297.9z"/>
						<path class="st8" d="M171,258.6c7.9,3.5,13.7,12.2,13,20.4c-0.2,1.3-0.8,2.4-1.7,3c-0.2,0.2-0.3,0.3-0.5,0.5
							c-1.9,1.9-5.6,2.5-7.8,0.6c-3-2.5-5.7-5.6-7.5-9.1c-1.7-3.3-2.1-7.2-3-10.7C162.7,259.9,167.6,257.2,171,258.6z"/>
						<path class="st8" d="M135.5,230.4c8.9-2.5,21.1,4.6,24.8,11.9c1.1,2.2,0.3,4.9-1.3,6.7c-1.9,2.1-5.1,2.9-7.9,2.1
							c-2.9-0.8-4.6-2.9-6.8-4.5c-3.8-2.9-8.7-4.3-11.8-7.8C130.4,236.2,131.8,231.6,135.5,230.4z"/>
						<path class="st8" d="M92.6,238.2c1.7-3.7,5.4-5.2,9.2-6.8c3.5-1.6,7.2-2.5,11-1.6c3.3,0.8,6,4.6,3,7.2
							c-2.5,2.2-5.2,3.5-8.4,4.9c-3,1.4-5.4,3.3-8.9,3.7C94.2,246,90.8,241.7,92.6,238.2z"/>
					</g>
					<g>
						<path class="st9" d="M195.4,391.3c1-1,2.7-1.6,4.1-0.8c2.7,1.4,3,3.2,3.8,5.7c0.6,2.1,1.4,4.1,2.2,6.2
							c0.5,1.3,0.3,2.9-0.6,3.8c-0.8,0.8-1.6,1.3-2.9,1.4c-1.4,0.2-3.2-0.5-4-1.6c-1.6-2.4-2.5-4.6-3.3-7.3
							C194,396.4,193.1,393.4,195.4,391.3z"/>
						<path class="st9" d="M183.7,344c1.3-1,3-0.6,4.3,0.2c2.2,1.4,2.5,3.3,2.9,5.6c0.5,2.4,1,4.8,1.4,7.2c0.5,2.7,2.5,8.4-2.5,8.7
							c-4.5,0.2-6.4-6-7.3-9.1C181.1,352.4,179.7,347.1,183.7,344z"/>
						<path class="st9" d="M178.9,301.4c1.3-0.8,2.7-0.5,3.8,0.2c2.5,1.4,2.5,4.5,3.2,6.8c0.6,2.5,1.6,5.1,1.7,7.6
							c0.2,3.7-4.8,5.6-7.3,2.5c-2.1-2.4-2.9-5.7-3.5-8.7C176.4,306.8,176,303.4,178.9,301.4z"/>
						<path class="st9" d="M165.9,265.4c0.6-1.6,2.5-1.9,4.1-1.4c2.4,0.6,3.8,2.5,4.9,4.5c1.1,1.9,2.4,3.8,3,5.7
							c1.3,4.3-4.6,7.8-7.9,3.8c-1.4-1.7-2.5-4.1-3.5-6.2C165.4,269.7,164.9,267.6,165.9,265.4z"/>
						<path class="st9" d="M140.4,236.5c2.5-1.3,6.5,1.3,8.4,2.7c0.5,0.3,4.8,3.5,3.2,4.3c-2.1,1-5.1-0.5-6.8-1.3
							c-2.1-1-5.2-2.7-5.2-5.1C140.1,236.8,140.1,236.6,140.4,236.5z"/>
						<path class="st9" d="M99.4,239.3c1-1,2.4-1.6,3.2-2.5c1-1.1,1.6-1.9,2.9-2.7c1-0.5,4.5-1.7,4.8,0.2c0.3,1.7-1.9,3-3.3,3.7
							c-1,0.5-2.1,0.5-3.2,0.6c-1.4,0.2-2.7,1-4.1,1.3C99.4,239.7,99.3,239.5,99.4,239.3z"/>
					</g>
					<g>
						<path class="st10" d="M247.3,275.6c4.5-2.4,10.2-1.1,13.7,2.1c1.3,1.1,2.1,2.4,2.7,3.8c4.1,4.9,5.6,12.7,4.1,18
							c-1.1,4.1-4.8,7.6-9.7,8.1c-5.2,0.3-8.6-3-11-6.8C243.3,294.2,238.2,280.4,247.3,275.6z"/>
						<path class="st10" d="M232.8,257c0.6-2.9,3.2-5.4,6.5-5.7c3.2-0.3,6.4,1.1,7.5,3.8c0.2,0.3,0.2,0.6,0.3,1
							c1.3,1.6,2.2,3.7,2.5,5.4c0.5,2.5-0.6,4.9-3,6.4c-2.9,1.7-6.2,1.1-8.9-0.6C234.2,264.6,231.7,261,232.8,257z"/>
						<path class="st10" d="M225.2,274.8c0.8-1.3,1.9-2.2,3.3-2.9c0.8-0.3,1.9-0.3,2.9-0.2c0.8,0,1.6,0.3,2.2,0.5
							c1.1,0.5,2.2,1.3,3,2.2c1,1.4,1.6,3.2,1,4.8c-0.2,1-0.6,1.7-1.3,2.5c-0.5,0.5-1.1,1-1.7,1.3c-1.4,0.6-3.5,1-5.1,0.2
							c-1.9-1-3.7-2.2-4.5-4.3C224.7,277.8,224.4,276.1,225.2,274.8z"/>
						<path class="st10" d="M206.6,223.9c3-3.2,8.3-3,11.8-0.8c1.7,1.1,3,2.5,4.1,4.1c3.2,2.1,5.9,5.2,7.9,8.3
							c2.5,4,2.4,9.5-2.9,11.6c-4.5,1.7-9.1-0.5-12.6-3C209.6,240.3,200.8,230,206.6,223.9z"/>
						<path class="st10" d="M183.2,207.6c1.7-1.1,4.3-1.6,6.4-0.8c1.4,0.5,2.5,1.4,3.2,2.5c1,0.5,1.7,1.3,2.2,2.2
							c1.6,3.3-1.3,6.8-5.1,7.2c-2.4,0.2-5.1-0.6-7-1.9C179.4,214.5,179.7,209.8,183.2,207.6z"/>
						<path class="st10" d="M151.7,191.5c5.4,0,11,0.8,14.5,4.3c2.2,0.8,4.5,1.9,6.5,3.3c4.8,3,1.4,8.9-3.2,9.7
							c-9.7,1.7-25.4,0.3-28.6-10.2C139.2,192.9,147.1,191.5,151.7,191.5z"/>
						<path class="st10" d="M125.2,197.5c2.1-0.5,4.6,0.5,5.6,2.4c0.3,0.5,0.5,1.3,0.5,1.7c0,0.6-0.2,1.3-0.5,1.9
							c-0.5,1.1-1.6,1.9-2.7,2.4c-1.3,0.5-2.5,0.3-3.8-0.2c-1.4-0.5-2.4-1.7-2.7-3C120.9,200.6,122.5,198.2,125.2,197.5z"/>
						<path class="st10" d="M244.1,316.6c1.7-1.9,4.9-2.7,7.5-1.6c3.5,1.4,6.8,4.3,8.3,7.6c2.1,2.5,3.2,5.7,3.3,9.1
							c0.3,5.9-2.9,13.2-11,11.1c-5.6-1.4-9.2-7.6-10.8-12.2C239.8,325.7,240.4,320.4,244.1,316.6z"/>
						<path class="st10" d="M263,355.9c1-1,2.5-1.9,4-1.9l0,0c2.4-0.5,4.9,0.6,6.4,2.4c0.3,0.5,0.6,1,1,1.4c0.3,0.8,0.5,1.4,0.5,2.2
							c0,0.8-0.2,1.6-0.6,2.4c-0.2,0.3-0.6,1.1-1,1.3l-0.2,0.2c-0.6,0.8-1.6,1.3-2.5,1.6c-0.8,0.3-1.6,0.3-2.4,0.3
							c-2.1,0-3.7-0.8-4.8-2.2c-0.2-0.2-0.2-0.2-0.3-0.3c-0.3-0.5-0.6-1-0.8-1.4c-0.3-0.6-0.5-1.3-0.5-1.9
							C261.6,358.4,262.1,357,263,355.9z"/>
						<path class="st10" d="M248.5,353.2c3.8,1.1,7.2,4.9,7.3,8.6c0.8,1,1.4,1.9,1.9,3.2c1.7,3.8,2.4,8.1,1.9,12.1
							c-0.3,3.3-5.4,5.1-8.1,2.9c-7-5.9-10-13.4-10.7-21.8C240.8,354.3,244.6,352.1,248.5,353.2z"/>
						<path class="st10" d="M266,384.8c0.6-3.5,4-6.5,8.1-6c3,0.5,4.5,2.1,5.6,4c2.7,1.7,4.9,4,7.3,6.4c2.5,2.5,5.1,5.2,5.6,8.7
							c0.6,4.5-2.5,8.7-7.8,9.5c-4.6,0.6-8.3-1.7-11.3-4.6C269.1,398.7,264.9,391,266,384.8z"/>
						<path class="st10" d="M291.2,416.8c0.2-1.1,0.6-2.1,1.4-2.9c0.8-0.8,1.7-1.4,2.7-1.7c0.6-0.3,1.4-0.5,2.2-0.5
							c1.4-0.2,2.5,0,3.8,0.5c0.2,0,0.2,0.2,0.3,0.2c0.6,0.3,1.1,0.6,1.7,1c0.8,0.6,1.4,1.4,1.9,2.2c0.5,0.6,0.6,1.1,0.8,1.7
							c0.3,0.8,0.3,1.4,0.2,2.2c-0.2,0.5-0.3,1.1-0.5,1.6c-0.3,0.6-0.6,1.3-1.1,1.7c-0.3,0.5-1,0.8-1.4,1.1c0,0-0.2,0-0.2,0.2
							c-0.6,0.5-1.4,0.8-2.4,1c-0.8,0.3-1.7,0.3-2.5,0.2H298c-1.4-0.2-2.2-0.6-3.3-1.4c-0.2,0-0.2-0.2-0.3-0.3
							c-0.5-0.3-1-0.8-1.3-1.3s-0.6-1.1-1-1.6c0-0.2-0.2-0.3-0.2-0.3C291.2,418.8,291.2,418.2,291.2,416.8z"/>
						<path class="st10" d="M260.3,413c3.7-2.4,8.6-2.2,12.1,0.2c1.9,1.3,2.9,3.2,3.2,5.1c3.7,1.9,6.4,5.4,7,8.7
							c0.8,4.6-2.9,8.7-8.1,9.1c-4.3,0.3-7.6-2.1-10.5-4.6c-2.5-2.2-4.9-4.5-6.7-7.3C255.1,420.3,256.3,415.5,260.3,413z"/>
					</g>
				</g>
				<g>
					<g>
						<path class="st6" d="M799.6,427.1c-32.6-17.3-64.7,1.1-88.9,23.7c-24.8,23.2-47.4,51.4-80.4,62.8c-15.4,5.2-32.1,5.6-47.1-1.3
							c-13.8-6.4-25.6-16.7-39.1-23.8c-6.7-3.5-13.7-6-21-7.3c-4.8-1-9.5,4.3-8.6,8.9c4,17.3,13.7,32.8,27.5,43.2
							c12.9,15.1,28.5,27.7,47.4,35.3c30.5,12.6,65.2,10.5,92.2-8.9c25.4-18.1,39.7-46.6,56.9-71.7c7.6-11.1,18.8-23.4,33.5-18.6
							c12.7,4,22.3,16.9,24,29.9c2.4,17.2-5.4,34.5-14,48.8c-3.7,6.2-11.6,13.8-9.4,21.6c2.2,7.3,10.5,9.2,17.2,7.5
							c14-3.5,27.2-16.4,35.5-27.7c8.9-12.1,14.8-26.6,16.2-41.5C844.7,475.9,828.4,442.4,799.6,427.1z"/>
						<path class="st10" d="M845.4,437.6c-17.8-28.1-49-42.3-81.7-39.6c-31.5,2.5-61.1,18-85.9,36.6c-22.7,17.2-50.9,44.4-81.6,29.3
							c-15.9-7.8-21.9-26.6-34.3-38.3c-17.6-16.9-35.3-1.9-51.8,10.2c-8.1,6-14.5,19.9-16.1,30.2c-1.7,11.1,5.6,21.8,11.3,30.7
							c37.8,59.8,119.4,80.3,172,27.2c0.8-0.8,1.6-1.6,2.4-2.4c15.9-16.7,28.6-36.6,46.1-51.5c16.4-14,38.3-24.6,59.8-15.6
							c20.7,8.7,33.7,31.8,31.8,53.9c-1.9,23.2-24.2,50.4-45,60.9c-4.3,2.2-4.1,8.7,0.3,9.7c20.8,4.6,45.2-10,60.1-23.1
							C865.7,527,867.8,473.2,845.4,437.6z"/>
						<g>
							<path class="st8" d="M675.6,543.8c-4,0.5-7.8,2.9-11.3,4.5c-4.3,1.9-8.7,3.8-13,5.7c-5.7,2.5-13.8,6.7-10,14.3
								c3,6.2,11.8,7.6,17.8,6.2c2.5-0.6,5.1-1.6,7.5-2.9c1.7-0.6,3.3-1.3,4.8-1.9c5.9-2.9,13-7.6,14.8-14.3
								C687.7,548.9,682.6,542.9,675.6,543.8z"/>
							<path class="st8" d="M726.1,503.3c-0.2-1.1-0.6-2.1-1.3-3c-5.6-6.7-13.5,3.3-17.5,7.2c-4.1,4-8.1,8.3-12.2,12.4
								c-3.2,3.2-13,13.7-3.7,16.4c8.7,2.4,18-1.7,24.3-7.6c5.4-4.8,9.1-11,10-18.1C726.1,508.2,726.6,505.5,726.1,503.3z"/>
							<path class="st8" d="M757.9,459.7c-8.1,0-14.9,3.7-21.5,8.7c-10.5,8.3-3.8,23.2,9.2,15.3c6-3.7,11.8-7.5,16.9-12.2
								C765.9,468.6,763.2,459.7,757.9,459.7z"/>
							<path class="st8" d="M805.8,493.2c0-0.3,0-0.6,0-1c-0.2-1.9-0.5-3.8-1-5.6c-1.1-3.8-2.9-7.5-5.6-10.3
								c-3.3-3.5-8.7-7.2-13.8-5.1c-0.6,0.3-1.1,0.8-1.4,1.6c-2.2,2.2-3.2,6.2-0.8,9.1c4,4.9,6.7,10.3,8.6,16.4
								c1.1,3.5,5.6,4.5,8.6,3.3c3.2-1.3,5.4-4.3,5.4-7.6C805.8,493.9,805.8,493.6,805.8,493.2z"/>
							<path class="st8" d="M800.4,524.7c-1.1-3.3-4.1-4.6-7.2-2.5c-1.6,1-2.7,2.5-3.8,4.1s-2.7,3.2-3.8,4.8c-1.4,2.2-3,4.5-4.3,6.8
								c-1.1,2.1-2.1,4.1-2.1,6.4c0,2.7,2.2,5.4,4.9,5.7c3.2,0.5,5.4-2.2,7.2-4.5c2.1-2.7,4.1-5.2,5.9-8.3c1.9-3.3,3.8-7,3.5-11
								C800.7,525.8,800.5,525.2,800.4,524.7z"/>
						</g>
						<g>
							<path class="st9" d="M674.1,555.4c-3.3,1.9-6.5,3.7-10.2,5.1c-2.9,1.1-6.7,1.3-8.6,4c-0.6,1-0.3,2.1,0.5,2.7
								c2.9,2.4,7.5,0.8,10.8-0.2c4.1-1.1,7.9-2.9,11.4-5.4C681.5,559.2,677.8,553.2,674.1,555.4z"/>
							<path class="st9" d="M716,511.4c-3.3,1.7-7.3,7.5-8.7,8.9s-7.9,5.7-7.2,8.1c1.4,4.1,7.2,1.7,9.9,0.5
								c3.5-1.7,15.1-13.5,8.9-17.8C718.2,510.6,717.1,510.7,716,511.4z"/>
							<path class="st9" d="M753.8,467.8C753.8,467.8,753.8,467.7,753.8,467.8c-2.5,0.6-4.1,1.6-6.2,3c-1.9,0.8-4.1,2.5-5.4,4
								c-0.8,0.6-1.6,1.4-1.9,2.4c-0.3,0.6,0,1.3,0.5,1.6c2.4,2.1,4.5,1,7,0c3.3-1.1,7.8-4.1,9.1-7.5
								C757.9,468.4,756,467.5,753.8,467.8z"/>
							<path class="st9" d="M798.2,490.2c-1.6-4-3.3-8.9-6.8-11.8c-1.9-1.6-4.6,0.5-4.5,2.7c0.5,4.1,3.2,8.1,4.6,11.9
								c0.5,1.1,1.7,2.1,2.9,2.1c1.6,0.2,2.4-0.3,3.3-1.4C798.6,492.9,798.6,491.3,798.2,490.2z"/>
							<path class="st9" d="M794.3,528.1c0-0.5,0-0.8-0.3-1c-1.9-1.1-4.3,1.4-5.9,3.8c-1.4,2.1-4.8,6.8-3.3,9.4
								c1.4,2.5,3.8-1.7,4.9-3.7C791.5,534.1,793.9,531.4,794.3,528.1z"/>
						</g>
						<g>
							<path class="st11" d="M675.1,461.6c-0.5-4.1-4.5-6-8.1-6c-6.4-0.2-13.7,2.5-18.1,7.5c-5.2,3-8.7,9.1-3.3,13.8
								c6.2,5.4,17.6,0.2,23.1-4.1C671.6,470.2,675.6,465.9,675.1,461.6z"/>
							<path class="st11" d="M684.6,440.9c-3.2-0.8-7,1.4-8.9,3.7c-0.6,0.8-1,2.2-0.8,3.3c-0.5,2.1,1,4.8,3.3,4.8
								c4,0.2,7.2-2.4,9.2-5.6C689.1,444.4,687.7,441.6,684.6,440.9z"/>
							<path class="st11" d="M698.6,432.7c-0.6-0.6-1.4-0.8-2.2-0.6c-1.6,0.2-3,0.8-3.7,2.4c-0.5,1.3-0.2,2.7,0.8,3.5
								c0.5,0.5,1,0.6,1.4,0.8c0.3,0.2,0.5,0.2,0.8,0.2c0.5,0,0.8,0,1.3-0.3c1.6-0.5,2.1-2.2,2.4-3.7
								C699.6,434.1,699.3,433.2,698.6,432.7z"/>
							<path class="st11" d="M726.8,419.5c-1.6-3.7-5.6-3.2-8.6-2.4c-4.8,1.3-15.4,4-13.8,10.8c0.2,0.8,0.6,1.3,1.4,1.6
								c0.2,0.3,0.3,0.6,0.6,1c4.3,4.5,13.4-1.1,17.3-3.7C726.1,425.4,728.2,422.5,726.8,419.5z"/>
							<path class="st11" d="M752.2,414.1c-0.6-3-3.8-4.8-6.8-4.5c-0.5,0-0.8,0.2-1.1,0.2c-3.8-0.5-8.7,1.4-11,3.8
								c-1.9,2.1-2.2,5.2-0.3,7.5s5.2,2.2,7.9,2.1C745.7,422.8,753.8,420.6,752.2,414.1z"/>
							<path class="st11" d="M709.3,437c-2.5,0.3-4.9,2.1-7,4c-0.3,0.2-0.6,0.3-1,0.5c-3,1.3-5.7,3.5-7.6,6.2
								c-1.6,2.4-0.3,6.5,2.9,6.5c6.4,0,14.9-2.9,17.6-9.4C715.8,441.1,713.6,436.7,709.3,437z"/>
							<path class="st11" d="M627.7,482c-0.5-3.3-3.7-4.9-6.7-4.9c-6.2,0-14.8,2.2-12.2,10.2c0.5,1.4,1.9,2.4,3.3,2.7
								c3.3,2.5,8.9,1.1,12.1-1.4C626.3,486.9,628,484.7,627.7,482z"/>
							<path class="st11" d="M648.1,488.5c-1.6-2.9-4.8-4-7.8-2.9c-1.1,0.3-1.9,1.1-2.5,2.1c-2.1,1.4-2.9,4.1-2.2,6.5
								c0.8,2.9,3.8,4.6,6.8,4c2.1-0.5,4.1-1.9,5.4-3.7C648.9,492.8,649.2,490.4,648.1,488.5z"/>
							<path class="st11" d="M696.6,464.3c-1.3-1.9-4.1-2.7-6.2-1.7c-0.8,0.3-1.4,1-1.9,1.6c-0.6,0.2-1.3,0.5-1.7,0.8
								c-2.1,1.3-3.3,3.2-3,5.7c0.3,2.1,1.9,3.7,3.7,4.5c2.1,0.8,4.3,0.5,6-0.8c1.1-0.8,1.9-1.9,2.7-3.2
								C697.7,468.9,698.3,466.5,696.6,464.3z"/>
							<path class="st11" d="M743.6,429.8c-4.3-2.2-15.4-1.3-15.9,5.1c-0.3,0.5-0.5,0.8-0.6,1.4c-0.8,2.1,0.6,4.8,3,4.9
								c5.6,0.2,10-1.6,14.6-4.6C747.4,434.7,746,431.1,743.6,429.8z"/>
							<path class="st11" d="M787,408.2c-5.6-2.7-16.2-4.1-20.8,1c-1.4,1.6-1.6,4-0.6,5.7c0,0.5,0.2,1,0.3,1.4
								c2.7,7.3,13.5,6,19.4,4.8c3-0.8,6-1.9,6.5-5.4C792.3,412.2,789.9,409.5,787,408.2z"/>
							<path class="st11" d="M764,424.4c-1.3-0.3-2.4-0.6-3.7,0c0,0,0,0-0.2,0c-0.8-0.5-1.9-0.6-2.9-0.5c-4.1,0.5-5.2,6-1.6,7.9
								c3.8,2.1,9.9,1.4,10.5-3.7C766.5,426.8,765.6,424.7,764,424.4z"/>
							<path class="st11" d="M819.3,423.8c-1-2.9-2.7-4.8-5.4-6c-2.4-1.1-5.7-1.6-8.1-0.2c-0.5,0-1.1,0.2-1.6,0.3
								c-1.1,0.3-1.9,1.6-1.9,2.7c-0.2,3.7,2.5,6.5,5.7,7.9c3,1.4,6.4,1.6,9.4,0.3C819.5,428.1,819.9,425.5,819.3,423.8z"/>
							<g>
								<path class="st11" d="M798.5,431.9c-0.2-0.5-0.2-0.6-0.3-0.8c-0.3-1.3-1.1-2.4-2.2-3.2c-2.7-2.1-7.3-1.4-8.6,2.1
									c-0.6,1.7,0,3.3,1.1,4.5c0.3,0.6,0.8,1.3,1.4,1.7c2.1,1.4,4.9,1.1,6.8-0.5c0.6-0.5,1.1-1.1,1.4-1.9
									C798.5,433.2,798.5,432.5,798.5,431.9z"/>
								<path class="st11" d="M798.2,431.1L798.2,431.1C798.2,430.8,798.2,430.8,798.2,431.1z"/>
								<path class="st11" d="M798.2,431.1L798.2,431.1v0.2C798.5,431.7,798.5,431.6,798.2,431.1z"/>
							</g>
							<path class="st11" d="M838.7,447.1c0-1.7-0.2-3.5-1-4.9c-1.7-3.7-7.2-5.7-10.5-2.9c-0.8,0.6-1.1,1.4-1.3,2.2
								c-2.5,4.9,5.4,14.5,10.7,12.1c1-0.5,1.9-1.7,1.6-2.9c-0.2-0.5,0.2-1.1,0.3-1.6C838.5,448.6,838.5,447.8,838.7,447.1z"/>
							<path class="st11" d="M816.9,442.4c-0.2-0.2-0.3-0.3-0.5-0.5c-0.2-0.2-0.3-0.3-0.5-0.5c-0.2-0.3-0.5-0.5-0.8-0.6
								c-0.2-0.2-0.3-0.2-0.6-0.3c-0.3-0.2-0.6-0.2-1-0.3c-0.3,0-0.6,0-1,0s-0.8,0.2-1.1,0.3c-0.3,0-0.6,0.2-1.1,0.3
								c-0.6,0.3-1.3,0.8-1.6,1.3c-0.6,1-0.8,1.9-0.6,3c0.2,1.3,1,2.5,2.1,3.2c0.8,0.5,1.6,1,2.5,1c1.3,0,2.7-0.3,3.7-1.1
								c0.8-0.6,1.4-1.6,1.4-2.7C817.9,444.3,817.7,443.2,816.9,442.4z"/>
							<path class="st11" d="M845.7,468.9c-0.6-1.1-1.6-2.1-2.7-2.5c-0.8-0.8-1.9-1.3-3.2-1.1c-6,0.8-6.5,12.2-3.5,16.1
								c1.7,2.4,5.1,3.3,7.6,1.4c1.7-1.3,2.7-3.5,3-5.6C847.3,474.6,847,471.3,845.7,468.9z"/>
							<path class="st11" d="M854,500.1c-1.7-3.5-5.9-4.6-9.2-2.9c-1.6,0.8-2.5,2.1-3.3,3.5c-3.3,2.5-5.4,7.8-6.2,11.1
								c-1,3.8-0.3,7.9,3.3,10c3.8,2.2,7.5,0.2,10.3-2.7C853.3,514.7,857,506.3,854,500.1z"/>
							<path class="st11" d="M833.1,540c-0.2-1.3-0.8-2.5-1.7-3.2c-0.3-0.6-0.8-1-1.4-1.3c-1.1-0.3-2.1-0.5-3.2-0.3
								c-1.6,0.3-2.9,0.8-4,2.1s-1.9,2.7-1.9,4.3c0,1.7,0.8,3.7,2.2,4.8c3,2.1,6.7,0.6,8.7-2.1C833,543,833.5,541.6,833.1,540z"/>
							<path class="st11" d="M587.3,469.9c-3-4-7.5-7.6-12.4-8.6c-5.6-1.1-11.4,1.6-13.5,7c-1.4,3.7-0.6,7.6,1.3,11
								c2.2,6.5,10.3,11.9,16.5,11.3c4.5-0.5,8.4-3.2,10.3-7.2C591.8,478.6,590.4,473.7,587.3,469.9z"/>
							<path class="st11" d="M606.7,500.4c-0.8-1.4-1.6-2.2-2.7-3.3c-1.6-1.4-4.1-2.2-6.2-1.1c-1.1,0.5-1.9,1.3-2.5,2.4
								c-1,0.8-1.4,2.2-1.6,3.3c-0.2,2.1,0.8,4.1,2.5,5.4c1.4,1.1,3.2,1.4,4.9,1.3c1.4-0.2,3-0.8,4.1-1.7c0.8-0.8,1.4-1.6,1.7-2.7
								C607.2,502.6,607.4,501.2,606.7,500.4z"/>
						</g>
					</g>
					<path class="st7" d="M619.3,484.2c-13-7.5-22.7-21.3-32.4-32.4c-5.1-5.9-10.5-11.6-15.9-17.3c-4.5-4.8-9.4-9.9-15.3-12.7
						c-0.6-0.3-1.3,0.6-0.8,1.1c5.2,5.7,11,10.8,15.9,16.9c5.2,6.4,9.1,13.5,14.1,19.9c4.5,5.6,9.2,11,14.9,15.4
						C605.6,479.4,612.3,482,619.3,484.2L619.3,484.2z"/>
				</g>
				<path class="st10" d="M646,217.4c-0.2-1-0.2-2.1-0.3-3c-7.9-79.3-54.7-149.9-127-184.1c-57.9-27.5-129.9-0.3-174.1,41
					c-40.4,37.7-62.6,92.5-66.6,147.1c-3.7,51.2,9.1,103,34,147.7c12.7,22.6,32.3,43.4,38.6,69.2c7.6,31,8.4,58,39.6,75.7
					c42.6,24,96-1.9,130.8-28.3c41.3-31.3,67.3-72.8,90.5-118C635.8,317.6,650.8,270.7,646,217.4z"/>
				<g>
					<g>
						<path class="st6" d="M636.5,710.6c8.4-41.2-22.1-70.6-54.7-89.7c-33.4-19.7-71.5-35.3-94.6-67.9c-10.8-15.3-16.4-33.4-13.8-52
							c2.5-17.3,10-33.4,13.5-50.4c1.7-8.4,2.2-16.9,1.3-25.4c-0.5-5.4-7.8-9.2-12.4-6.5c-17.6,10-31.5,25.6-38.5,44
							c-12.4,18.9-21,40.1-23.4,63.3c-3.8,37.5,9.5,74.7,39.6,98.1c28.1,21.9,63.8,28.5,96.8,39.3c14.6,4.8,31.5,13,31.2,30.7
							c-0.3,15.3-11.3,29.7-25,35.9c-18.1,8.3-39.4,5.2-58,0.3c-7.9-2.1-18.9-8.3-26.7-3.3c-7.3,4.8-6.7,14.5-2.7,21.1
							c8.4,14.1,26.7,24.5,41.8,29.9c16.1,5.9,33.7,7.6,50.6,4.3C597.5,775.8,629,747,636.5,710.6z"/>
						<path class="st10" d="M639.6,764.2c25-28.5,30.5-67.1,17-102.2c-12.9-33.7-39.3-61.1-67.7-82.2c-26.1-19.2-64.9-41.3-58.3-80
							c3.3-19.9,21.9-32.4,31-49.9c12.7-24.8-9.2-39.3-27.8-53.4c-9.2-7-26.4-9.4-38.3-7.8c-12.7,1.7-22.1,13.2-30,22.3
							C412.1,471.6,416,567.5,491,608c1.1,0.6,2.2,1.3,3.3,1.7c23.4,11.9,49.1,19.6,71.4,33.9c20.7,13.5,39.3,34,36.2,60.4
							c-2.9,25.4-24,47.2-48.8,52.3c-26.1,5.4-63-10.2-81.2-29.6c-3.8-4-11-1.7-10.5,3.3c1.6,24.3,25.6,46.3,44.7,58.3
							C548.4,815.2,608,800.3,639.6,764.2z"/>
						<g>
							<path class="st8" d="M468.6,612.5c-1.9-4.1-5.6-7.6-8.4-11c-3.5-4.1-7-8.3-10.5-12.4c-4.6-5.4-11.8-13-18.9-6.4
								c-5.9,5.4-4.5,15.3-1.1,21.5c1.4,2.5,3.3,5.1,5.6,7.2c1.3,1.6,2.4,3.2,3.7,4.5c4.9,5.6,12.4,11.8,20.4,11.6
								C467,627.3,471.9,619.8,468.6,612.5z"/>
							<path class="st8" d="M529.3,654.6c1.1-0.6,2.1-1.4,2.9-2.4c5.6-8.3-7.9-13.8-13.5-16.9c-5.7-3.3-11.8-6.2-17.5-9.4
								c-4.6-2.5-19.2-9.9-19.1,1.3c0.2,10.3,7.8,19.1,16.2,24.2c7,4.3,14.9,6.4,23.1,5.1C523.9,656.4,526.9,655.9,529.3,654.6z"/>
							<path class="st8" d="M587.3,675.6c-2.5-8.9-8.9-15.3-16.5-20.7c-12.6-8.9-26.6,3.3-13.8,15.1c5.9,5.4,11.9,10.5,18.9,14.5
								C580.2,687.1,588.9,681.3,587.3,675.6z"/>
							<path class="st8" d="M565.9,738.7c0.3-0.2,0.6-0.2,1-0.3c2.1-0.8,4-1.7,5.7-2.9c3.8-2.4,7.2-5.6,9.5-9.4
								c2.9-4.8,5.1-11.9,1.1-16.7c-0.5-0.6-1.3-1-2.1-1.1c-3.2-1.7-7.6-1.4-10.2,2.1c-4.1,6-9.2,10.8-15.3,14.8
								c-3.5,2.2-3,7.6-0.8,10.5c2.4,3,6.4,4.6,10.2,3.5C565.2,739,565.6,738.9,565.9,738.7z"/>
							<path class="st8" d="M529.8,743c3.3-2.4,3.7-5.9,0.5-8.7c-1.6-1.4-3.7-2.2-5.7-2.9c-2.2-0.8-4.3-1.9-6.5-2.5
								c-2.9-1-5.9-1.7-8.9-2.4c-2.5-0.5-5.2-1-7.6-0.2c-2.9,1-5.1,4.1-4.6,7.3c0.6,3.7,4.3,5.1,7.2,6.4c3.7,1.4,7.2,2.9,11,3.8
								c4.3,1,8.9,1.9,13,0.3C528.7,743.7,529.3,743.3,529.8,743z"/>
						</g>
						<g>
							<path class="st9" d="M455.5,614.6c-3.2-3-6.2-6-8.9-9.4c-2.2-2.9-3.7-6.8-7.2-8.1c-1.1-0.5-2.4,0.3-2.9,1.4
								c-1.7,4,1.6,8.4,3.7,11.8c2.5,4.1,5.7,7.8,9.5,10.8C453.6,623.9,459,618.1,455.5,614.6z"/>
							<path class="st9" d="M517.2,646.4c-3-3-10.5-5.6-12.6-6.7c-2.1-1.1-8.9-6.8-11.1-5.1c-4,2.9,0.3,8.4,2.7,11
								c3,3.2,19.7,12.2,22.3,4.1C518.7,648.4,518.2,647.3,517.2,646.4z"/>
							<path class="st9" d="M577.2,673.5C577.2,673.5,577.2,673.7,577.2,673.5c-1.6-2.7-3-4-5.4-5.9c-1.4-1.7-4.1-3.7-6-4.6
								c-1-0.6-1.9-1.3-3.2-1.3c-0.8-0.2-1.3,0.5-1.6,1.1c-1.6,3.2,0.5,5.2,2.2,7.8c2.2,3.2,7,7.3,11.1,7.5
								C577.6,678.5,578.1,675.9,577.2,673.5z"/>
							<path class="st9" d="M566.8,729.5c3.8-3.2,8.7-6.5,10.7-11.3c1.1-2.7-1.9-4.9-4.3-4c-4.3,1.7-7.9,6-11.6,8.9
								c-1.1,0.8-1.7,2.5-1.4,3.8c0.3,1.7,1.1,2.4,2.7,3.2C564.1,730.8,565.9,730.3,566.8,729.5z"/>
							<path class="st9" d="M524.2,737.3c0.5-0.2,0.8-0.3,1-0.6c0.6-2.4-3-4.1-6-5.2c-2.7-1-8.9-3-11.3-0.6c-2.4,2.4,3,3.5,5.6,4.3
								C516.6,736.2,520.3,737.9,524.2,737.3z"/>
						</g>
						<g>
							<path class="st11" d="M584.3,589.3c-0.2-3.7-3.8-7.2-7-8.6c-1.1-0.5-2.7-0.3-3.8,0.3c-2.5,0.2-4.9,2.5-4.3,5.1
								c1.1,4.5,4.8,7.2,9.1,8.3C581.8,595.3,584.5,592.8,584.3,589.3z"/>
							<path class="st11" d="M597.7,601.8c0.5-0.8,0.5-1.7,0-2.7c-0.6-1.6-1.9-3-3.8-3.2c-1.6-0.2-2.9,0.6-3.7,2.1
								c-0.3,0.6-0.5,1.1-0.3,1.9c0,0.3,0,0.6,0.2,1c0.2,0.5,0.3,1,0.6,1.3c1.1,1.6,3,1.6,4.8,1.4
								C596.6,603.4,597.4,602.8,597.7,601.8z"/>
							<path class="st11" d="M621.2,628.5c3.3-3,1.7-7-0.2-10.2c-3-4.9-9.2-15.6-16.2-11.6c-0.8,0.5-1.3,1.1-1.3,2.1
								c-0.3,0.3-0.6,0.6-0.8,1.1c-3.5,6.2,5.6,14.1,9.5,17.8C614.7,629.7,618.5,630.9,621.2,628.5z"/>
							<path class="st11" d="M635.4,654.6c3-1.7,4-5.7,2.7-8.9c-0.2-0.5-0.3-0.8-0.6-1.3c-0.8-4.3-4.5-9.1-7.8-10.8
								c-2.9-1.4-6.4-0.8-8.3,2.1c-1.9,2.9-0.8,6.4,0.3,9.4C623.6,650.3,628.8,658.3,635.4,654.6z"/>
							<path class="st11" d="M596.4,614.9c-1.1-2.7-3.8-4.8-6.7-6.4c-0.3-0.3-0.5-0.6-0.8-1c-2.4-2.9-5.7-5.1-9.2-6.4
								c-3-1.1-7.3,1.7-6.2,5.2c2.1,7,7.9,15.4,15.9,16.4C594,623.5,598.3,619.5,596.4,614.9z"/>
							<path class="st11" d="M558.9,577c1.6-2.1,1.6-5.4,0-7.5c-0.6-0.8-1.4-1.3-2.4-1.6c-0.5-0.6-1-1.1-1.3-1.6
								c-2.1-1.9-4.6-2.7-7.3-1.4c-2.1,1-3.3,3.2-3.7,5.6c-0.3,2.5,1,4.8,2.9,6.4c1.3,1,2.9,1.4,4.3,1.9
								C554.1,579.6,557,579.4,558.9,577z"/>
							<path class="st11" d="M615.5,650.2c1-5.4-3.7-17.3-10.8-15.7c-0.5-0.2-1.1-0.3-1.7-0.3c-2.5-0.2-5.1,2.2-4.5,4.9
								c1.6,6,4.9,10.5,9.7,14.5C611.2,656.1,614.8,653.2,615.5,650.2z"/>
							<path class="st11" d="M653,690.9c1.1-6.8-0.8-19.1-7.8-22.6c-2.2-1.1-4.9-0.5-6.4,1.1c-0.5,0.2-1,0.5-1.4,0.8
								c-7.2,5.4-2.4,16.7,1.1,22.7c1.7,3.2,4.1,5.9,8.1,5.4C650.5,697.9,652.5,694.2,653,690.9z"/>
							<path class="st11" d="M627.9,670.7c0-1.4-0.2-2.9-1.3-4c0,0,0,0-0.2-0.2c0.2-1.1,0.2-2.4-0.3-3.3c-1.9-4.3-8.3-3.8-9.2,1
								c-1,4.8,1.7,11.1,7.5,10.3C626.1,674.3,627.9,672.6,627.9,670.7z"/>
							<path class="st11" d="M646.5,731.1c2.7-2.1,4.3-4.5,4.9-7.9c0.5-2.9-0.2-6.8-2.4-8.9c-0.2-0.6-0.5-1.1-1-1.7
								c-0.6-1-2.4-1.6-3.5-1.3c-4.1,1-6.2,4.9-7,8.7c-0.6,3.8,0.3,7.5,2.7,10.5C641.7,732.7,644.6,732.5,646.5,731.1z"/>
							<g>
								<path class="st11" d="M630.7,710.9c0.5-0.3,0.6-0.5,0.8-0.5c1.3-0.8,2.4-1.9,2.9-3.3c1.4-3.7-1-8.6-4.9-8.7
									c-2.1-0.2-3.7,1-4.6,2.7c-0.6,0.5-1.1,1.3-1.4,2.2c-1,2.7,0.3,5.9,2.7,7.3c0.8,0.5,1.6,0.8,2.5,1
									C629.3,711.4,630.1,711.2,630.7,710.9z"/>
								<path class="st11" d="M631.7,710.4L631.7,710.4C631.9,710.3,631.9,710.3,631.7,710.4z"/>
								<path class="st11" d="M631.7,710.4L631.7,710.4c0,0-0.2,0-0.2,0.2C631.1,710.9,631.1,710.7,631.7,710.4z"/>
							</g>
							<path class="st11" d="M627.1,759.9c1.9-0.5,3.7-1.3,5.1-2.7c3.5-3.2,4-9.7-0.3-12.4c-1-0.6-1.9-0.8-2.9-0.8
								c-6.2-1.3-14.1,10.5-9.9,15.6c0.8,1,2.5,1.4,3.7,0.8c0.5-0.3,1.3-0.2,1.7-0.2C625.5,760.2,626.3,760,627.1,759.9z"/>
							<path class="st11" d="M625.3,734.6c0.2-0.2,0.3-0.5,0.5-0.6c0.2-0.3,0.3-0.5,0.5-0.8c0.2-0.3,0.3-0.6,0.3-1.1
								c0-0.3,0.2-0.5,0.2-0.8s0-0.8,0-1.1c-0.2-0.3-0.2-0.8-0.3-1.1s-0.5-0.8-0.6-1.1s-0.3-0.8-0.6-1.1c-0.5-0.6-1.3-1.1-1.9-1.4
								c-1.3-0.3-2.4-0.3-3.5,0.2c-1.3,0.6-2.4,1.9-2.9,3.2c-0.3,1-0.5,2.1-0.2,3.2c0.3,1.4,1.1,2.9,2.4,3.7c1,0.6,2.2,1,3.3,0.8
								C623.6,736.2,624.5,735.5,625.3,734.6z"/>
							<path class="st11" d="M605.5,774.7c1-1.1,1.7-2.4,2.1-3.7c0.6-1.1,0.8-2.4,0.2-3.8c-2.9-6.4-15.4-3.2-18.8,1.4
								c-1.9,2.7-1.9,6.7,0.8,8.7c1.9,1.4,4.8,1.7,7,1.4C599.7,778.3,603.4,776.9,605.5,774.7z"/>
							<path class="st11" d="M574,793.7c3.2-3,3.2-7.9,0.2-11c-1.4-1.4-3-2.1-4.9-2.4c-3.8-2.9-10.3-3.3-14.3-3.2
								c-4.5,0.2-8.7,2.2-10,6.8c-1.3,4.9,2.2,8.3,6.2,10.5C557.8,797.7,568.1,799.1,574,793.7z"/>
							<path class="st11" d="M523.6,783.9c1.3-0.5,2.4-1.7,3-3c0.5-0.5,1-1.1,0.8-1.9c0-1.3-0.2-2.4-0.8-3.7
								c-0.8-1.6-1.9-2.9-3.5-3.7c-1.7-0.8-3.5-1.3-5.4-0.6c-1.9,0.6-3.8,2.1-4.5,4c-1.3,4,1.4,7.5,5.1,8.9
								C520.1,784.5,522,784.5,523.6,783.9z"/>
						</g>
					</g>
					<path class="st7" d="M523.1,523.3c4-16.7,16.1-31.6,25.1-45.9c4.8-7.5,9.4-15.3,13.8-23.1c3.7-6.4,7.8-13.5,8.9-20.8
						c0.2-0.8-1-1.1-1.4-0.5c-4.6,7.6-8.3,15.6-13.2,22.9c-5.2,7.6-11.8,14.3-17.2,21.8c-4.8,6.7-9.1,13.7-12.1,21.3
						C523.9,506.9,523.3,514.9,523.1,523.3C523,523.5,523.1,523.5,523.1,523.3z"/>
				</g>
				<g>
					<g>
						<g>
							<path class="st6" d="M353.6,586.3c-16.1,3.3-33.9-5.2-45.9-14.9c-14.5-11.4-24.3-26.9-32.3-43.4
								c-8.4-17.6-14.6-36.1-22.7-53.9c-8.3-18-18.9-35-31-50.6c-11.3-14.5-24-28.6-40.4-37.5c-15.3-8.3-32.6-11-49.8-7.6
								c-35,7.2-60.7,35.1-70.1,68.8C50,487.7,58.9,532.8,83,567c3.5,5.1,9.5,2.4,11.1-2.2c1.3-0.5-0.2-2.1,0.2-3.5
								c2.7-12.6,3.8-20,7.8-31.3c1.4-0.2,4.8-0.8,6.2-1.7c5.2-4.1,7-14.8,7.3-21c0.3-5.4-1.7-11.3-6.4-13.8c0.5-1.7,1-3.5,1.4-5.2
								c1.7-5.9,3.8-12.1,6.5-17.8c6,6.2,17.8-0.3,24-4.6c5.2-3.7,11.8-10.2,12.1-16.4c1,0.3,1.7,0.6,2.5,1.1
								c6.5,3.7,11,10.5,14.9,16.5c-4.9,7.5-2.5,19.4,2.1,27.2c3,5.2,7.8,10.5,14.3,11.3c1.1,0.2,2.2,0.2,3.3,0
								c3.3,7.8,6.7,15.6,10.3,23.4c-2.7,3.2-3.3,7.6-2.9,11.8c1.1,10.2,8.6,22.1,18.6,25.4c2.4,0.8,4.5,1,6.5,0.6
								c5.4,6.8,11.3,13,18,18.4c-5.1,14.9,24.3,34.5,36.7,19.2c6.4,1.9,13,3.2,19.7,4c0,1.3,0.3,2.7,1.1,3.8
								c6.7,9.1,19.9,10.8,29.7,6c4.9-2.4,10.2-6.8,11.3-12.4c0.2-0.5,0.2-0.8,0.2-1.3c6-1.9,11.8-4.3,17.2-7.5
								C362.1,594.2,360.6,584.7,353.6,586.3z"/>
							<g>
								<path class="st8" d="M268.9,588.2c-5.1-3.8-11-7-17.2-8.1c-7.3-1.4-13.7,3.7-12.6,11.4c1.1,8.3,7.5,15.1,15.1,17.8
									c3,1.9,6.5,3.2,9.9,3.8c6.7,1,13-2.5,13.8-9.7C278.9,596.7,273.8,591.8,268.9,588.2z"/>
								<path class="st9" d="M270,599c-2.7-1.6-5.9-2.1-8.6-3.7c-2.7-1.6-5.1-3.5-7.9-4.9c-3.2-1.6-5.9,2.2-4.8,5.1
									c2.4,6.8,12.2,12.4,19.4,11.6C271.8,606.8,273.5,601,270,599z"/>
								<path class="st8" d="M225.3,547.9c-3-7.9-14.6-23.1-24.3-15.9c-6.4,4.6-4.8,14.1,0,20.7c2.2,4.5,5.4,8.4,7.8,10.3
									c4.3,3.3,10.5,4.5,14.8,0.5C227.7,559.4,227.4,553,225.3,547.9z"/>
								<path class="st9" d="M216.6,553.3c-0.8-1.7-2.5-3.3-3.7-4.9c-1.9-2.9-3.5-7.5-7-8.7c-0.8-0.3-1.9,0-2.4,0.8
									c-3,3.8,0.2,9.7,2.4,13c2.7,4.1,5.4,6.8,10.3,5.2c0.2,0,0.5-0.3,0.5-0.6C216.9,556.4,217.2,554.9,216.6,553.3z"/>
								<path class="st8" d="M201.3,483.7c-2.2-10.5-14.8-35.1-28.3-21.9c-11.4,11.3-4.3,38,9.1,44.8c5.7,3,12.9,1.4,16.7-4
									C202.8,497.4,202.6,489.9,201.3,483.7z"/>
								<path class="st9" d="M186.1,474c-0.8-3-3-4.1-5.1-4.1c-2.1-0.8-4.5,0.2-5.6,2.4c-0.3,0.8-0.6,1.6-1,2.4
									c-1.9,3.7-0.3,8.9,1,12.6c0.2,0.5,0.3,1,0.5,1.4c1.3,3.7,3,7,4.8,9.4c2.7,3.8,8.6,1.4,9.2-2.7
									C191,488.2,187.8,480.8,186.1,474z"/>
								<path class="st8" d="M111,494.8c-9.1-5.2-13.4,4.3-14.9,11.8c-1.3,6.8-4.1,22.6,5.4,24.8C114.7,534.3,120.2,500.1,111,494.8
									z"/>
								<path class="st9" d="M112,503.9c-0.8-4.8-7.2-3-7.3,0.3c-1.4,1.6-2.4,3.8-2.9,5.6c-0.5,1.7-0.8,3.5-0.8,5.2
									c0,1,0.2,1.6,0.5,2.2c0.3,2.2,1.3,4.1,4,4.1c2.2,0,3.7-1.1,4.1-3.2C110.5,513.4,112.8,509,112,503.9z"/>
								<path class="st8" d="M154.7,444.9c-2.2-8.6-11.3-11.3-19.2-9.7c-9.5,2.1-25.6,11.1-26.9,22.1c-0.5,1.6-0.8,3.2-0.6,4.9
									c0.5,7.6,7.8,12.6,15.1,12.1c7.8-0.5,15.7-5.2,21.6-10.3C150,459.4,156.8,452.7,154.7,444.9z"/>
								<path class="st9" d="M147.1,447.3c-3.5-4.5-9.9-2.2-14.3-0.6c-4.5,1.7-9.5,4.5-12.4,8.3c-3,4-4,11,1.9,12.7
									c1.1,0.3,2.2,0.3,3.3-0.2c5.9,0.5,14.5-5.1,17.8-7.9C147,456.7,150.6,451.9,147.1,447.3z"/>
							</g>
							<path class="st10" d="M440.4,477.7c-5.9-21.6-22.1-39.4-44.5-44c-23.2-4.6-39.9,8.3-52.6,25.9c-6.5,9.1-14.5,29.3-24.6,34.8
								c-9.7,5.4-16.9-4.5-22.4-13.4c-5.2-8.3-10.3-18.6-14-27.7c-4.1-10.7-9.1-21.1-14.8-31.2c-22.7-39.9-60.6-73.1-108.1-76.9
								C115.5,341.7,77.2,368,57.3,406c-21.5,41-15.9,90.5,4.3,130.8c5.1,10.3,11.3,20,18.1,29.3c2.9,4,9.7,9.1,12.2,6.2
								c1.9,1.4,5.1-4.6,4-7c-8.9-20.8-17.6-45.2-17-67.9c0.6-22.7,7.2-45.6,20.2-64.5c12.7-18.3,33.4-32.9,56.3-24.8
								c24.5,8.7,37.4,33.7,47.9,55.6c11.4,24,20.4,49.1,30.8,73.6c9.2,21.8,20.7,42.8,39,58.2c35.5,30.2,86.3,21.3,121.3-4.9
								C427.6,565.7,451.7,519.6,440.4,477.7z"/>
						</g>
						<g>
							<path class="st11" d="M63.5,453.7c-0.6-3.2-4.5-5.1-7.2-2.7c-3,2.7-4.9,6.2-4.9,10c-1.6,4.6-0.6,10.2,5.2,10.3
								c4,0.2,6.2-3.7,7-7C64.4,460.8,64.3,457.2,63.5,453.7z"/>
							<path class="st11" d="M69.7,403.3c-2.5-7.9-10.2,3.3-11.9,6.2c-4,6.2-10.2,17.5-5.1,24.3c0.8,1.1,2.4,1.6,3.7,1.4
								c5.1-1,7.9-8.3,9.7-12.4C69,416.8,71.9,409.9,69.7,403.3z"/>
							<path class="st11" d="M88.6,380.2c-3.8-1.1-8.1,1.4-10.2,4.6c-0.5,0.8-1,1.7-1.3,2.9c-1.6,2.2-2.7,4.9-3,7.3
								c-0.3,4,2.4,7.8,6.5,8.1c4,0.3,6.7-2.7,8.7-5.6C92.6,392.9,96.9,382.8,88.6,380.2z"/>
							<path class="st11" d="M126.4,352.5c-9.2-2.7-26.1,4.5-29.6,13.5c0,0.2-0.2,0.5-0.2,0.6c-1.3,2.1-1.7,4.5-0.6,6.8
								c4.1,8.7,19.2,4.1,25.3,0.3C127.2,370.2,139,356.2,126.4,352.5z"/>
							<path class="st11" d="M163.2,349.8c-4.5-1.6-8.9,1.1-10.3,4.9c-1.9,1.3-2.9,3.7-2.2,6c1.6,6.7,10.5,6,14.8,2.5
								C170.3,359.5,169.1,352.1,163.2,349.8z"/>
							<path class="st11" d="M144.6,363.2c-0.6-0.3-1.1-0.6-1.7-0.8c-0.6-0.2-1.1-0.3-1.9-0.2c-0.3,0-0.8,0.2-1.1,0.3
								c-1.4,0-2.7,0.6-3.5,1.7c-1.6,2.1-1,5.4,1.3,7c1.6,1.1,3.8,1.3,5.6,0.5c0.8-0.3,1.7-1.1,2.2-1.9c0.6-1,0.8-1.6,1-2.7
								C146.6,365.9,145.8,363.8,144.6,363.2z"/>
							<path class="st11" d="M220.1,373.7c-3.2-5.1-7.3-9.9-13-12.1c-4.8-1.9-11-1-12.9,3.8c-1.1,1-2.1,2.2-2.5,3.5
								c-2.1,5.7,1.7,12.9,4.9,17.6c3.5,5.2,8.6,9.5,14.6,11.4c5.9,1.7,13-0.5,14.5-7C227.1,385,223.1,378.5,220.1,373.7z"/>
							<path class="st11" d="M228.2,409.8c-1-1.9-2.2-4.1-4-5.4c-3-2.1-7.5-0.6-8.6,2.9c-0.6,1.7-0.3,3.3,0.6,4.8
								c0.2,1.1,0.5,2.2,1,3.3c1,2.1,2.9,4.1,4.9,4.8c2.9,1,6.4-0.3,7.3-3.3C230.1,414.4,229.3,411.8,228.2,409.8z"/>
							<path class="st11" d="M264,422c-2.2-8.4-12.7-21.3-22.7-16.1c-5.6,3-5.1,10-3.2,15.1c0.5,1.3,1.1,2.4,1.7,3.5
								c1.6,4.3,4.3,8.1,7.9,10.8c4.3,3.2,10.7,4.9,14.6,0.3C265.7,431.9,265.2,426.3,264,422z"/>
							<path class="st11" d="M275.6,452.4c-0.2-0.3-0.3-0.6-0.5-1c-0.2-0.2-0.5-0.8-0.6-1.3c0.2,0.3,0.2,0.2-0.3-0.5
								c-0.2-0.3-0.3-0.6-0.5-1s-0.3-0.5-0.6-0.8c-1.4-1.6-3.3-2.7-5.6-2.9c-2.4-0.2-5.2,0.8-6.5,3c-1,1.6-1.1,3-0.5,4.6
								c0,0.5,0.2,1.1,0.3,1.6c0.5,1.4,1.3,2.9,2.2,4.1c2.7,3.7,8.4,4.8,11.8,1.3C276.7,458,276.7,454.9,275.6,452.4z"/>
							<path class="st11" d="M293.1,492.9c-4.8-5.1-11.3-10.8-18.8-7c-7.5,3.7-7.2,12.7-3.8,19.1c2.5,5.1,6.5,10.2,11.8,12.4
								c0.8,0.5,1.6,1,2.2,1.3c6.8,3.5,14.1-0.2,15.4-7.8C301.2,504.1,297.4,497.7,293.1,492.9z"/>
							<path class="st11" d="M266.8,475c-0.5-3-2.2-5.6-4.6-7.5c-2.5-2.1-6.4-1.1-8.3,1.4c-2.1,2.5-2.2,6.7-0.2,9.2
								c1.1,3.3,4.3,6.2,8.1,5.1C265.4,482.1,267.3,478.6,266.8,475z"/>
							<path class="st11" d="M71.6,437c-1.9-0.6-4.1,0-5.2,1.7c-0.5,0.6-0.6,1.6-0.6,2.5c-1.1,1.7-1.3,4.3-0.5,5.9
								c1,1.9,3.8,3,5.6,1.3c1.7-1.7,3.5-4.1,3.7-6.7C74.6,439.7,73.5,437.6,71.6,437z"/>
							<path class="st11" d="M65.4,500.2c0-4,0.6-18.6-7.2-15.6c-3.3,1.3-4,5.6-4.1,8.6c0,1,0,2.1,0.2,3c-0.3,4.1,0.6,8.9,2.1,11
								c1.6,2.4,4.6,3.7,7,1.7C65.9,506.9,65.4,502.9,65.4,500.2z"/>
							<path class="st11" d="M73.8,532.4c-1-3.2-2.7-8.1-5.6-9.9c-3.5-2.1-7,0.6-7.5,4.3c-0.3,2.7,0.2,5.1,1.3,7.3
								c0.2,0.6,0.2,1.1,0.3,1.4c1.1,4.5,3.3,8.9,7,11.9c2.1,1.7,6,0.2,6-2.7C75.2,540.6,74.9,536.3,73.8,532.4z"/>
							<path class="st11" d="M183.2,370.5c-0.2-0.5-0.3-1-0.5-1.4c0-0.2-0.2-0.3-0.2-0.5c-0.2-0.5-0.3-1-0.5-1.3
								c-0.8-1.4-2.1-2.7-3.7-3.2c-1.3-0.5-2.9-0.5-4.1,0.2c-1.3,0.6-2.1,1.6-2.7,3c-0.8,1.6-0.2,3.7,1.1,4.8c0,0,0,0,0.2,0.2
								c0,0.3,0.2,0.6,0.3,1.1c1.3,3.2,5.4,4.6,8.1,2.4C182.9,374.3,183.5,372.4,183.2,370.5z"/>
							<path class="st11" d="M349.7,489.6c-6-2.2-12.6,2.1-17.2,5.6c-4.8,3.7-11.1,9.5-10.8,16.1c0.3,7,7,10.7,13.5,9.2
								c6.5-1.4,11.8-7,15.9-11.9c1.3-1.6,2.2-3.5,2.7-5.6C356,498,356,492,349.7,489.6z"/>
							<path class="st11" d="M312.5,527.4c-1.9-1.9-4.6-2.7-7.3-2.2c-2.7,0.5-5.7,2.5-6.5,5.4c0,0.2,0,0.2,0,0.3
								c-0.5,0.6-1,1.3-1.3,1.9c-1,2.5-0.2,5.1,1.4,7.2c3.3,4.1,9.5,4.3,13.5,0.8C316.3,537.4,316.3,531.1,312.5,527.4z"/>
						</g>
					</g>
					<path class="st7" d="M351.9,448.7c-15.7,9.2-23.7,27-34,41.5c-5.4,7.5-11.3,14.9-17.8,21.5c-7.2,7-18.3,10.2-28.1,10.8l0,0
						c8.7,4,16.4,2.2,24.6-2.4c8.6-4.8,15.4-10.3,21.5-18c6.5-8.1,12.4-16.9,18.4-25.3s12.2-16.9,17.2-25.9
						C354.6,450,353.5,447.9,351.9,448.7z"/>
				</g>
				<path class="st12" d="M356.3,447.6c-2.9-7.2,8.3-23.4,10.2-30.5c16.4-59.5-45.5-87-73-128.5c-5.6-8.4-10.5-17.3-14.5-26.6
					c3.8,36.4,15.4,71.9,33.2,103.8c12.7,22.6,26.9,45.5,38.6,69.2C353,439.8,354.7,444,356.3,447.6z"/>
				<path class="st13" d="M646,217.4c-0.2-1-0.2-2.1-0.3-3c-7.9-79.3-54.7-149.9-127-184.1c-12.2-5.9-25.1-9.2-38.3-10.5
					c4.9,1.7,9.9,3.8,14.6,6.2c35.9,17.2,64.4,47.7,83.1,82.4c44.5,82.5,33.4,184.6-2.7,268.1c-19.1,44.2-47.5,82.8-83.3,115.1
					c-7.6,7-15.6,14-23.8,20.8c19.4-7.3,37.7-18.4,52.6-29.7c41.3-31.3,67.3-72.8,90.5-118C635.8,317.6,650.8,270.7,646,217.4z"/>
				<path class="st11" d="M370.2,96.9c-1.1-7.3-7.6-12.1-14.6-12.9c-11.9-1.1-19.6,8.9-23.1,20c-2.7,4.9-4.1,10.7-3.5,16.1
					c0.8,7.2,5.7,14.1,13.5,13.5c8.3-0.6,15.3-7.9,19.6-14.3C366.4,113,371.4,104.7,370.2,96.9z"/>
				<path class="st11" d="M406.3,71.9c-1.1-5.7-6.7-9.2-12.6-8.1c-5.6,1.1-8.9,6.2-9.2,11.4c-1.7,3.7-0.5,8.9,2.9,11.4
					c4.1,3,9.5,1.3,12.6-2.4c1.1-1.4,1.9-3.2,2.7-4.8c0.2-0.3,0.3-0.5,0.5-0.8c0,0,0.2-0.3,0.3-0.5c0.2-0.2,0.5-0.3,0.5-0.3
					C405.8,76.9,406.7,74,406.3,71.9z"/>
				<path class="st11" d="M322.9,150.2l-0.2-0.2c-0.2-1-0.5-1.9-0.8-2.9c-0.8-2.5-4.6-4.6-7.2-4c-9.9,2.4-16.7,12.6-18.1,22.4
					c-0.3,2.5,0,4.8,0.8,6.7c1.3,4.3,4.3,7.9,9.1,8.6c2.5,0.3,4.8-0.3,6.8-1.6c1.1-0.3,2.2-0.8,3.3-1.4
					C324.4,173.4,329.8,157.3,322.9,150.2z"/>
				<path class="st11" d="M307.8,260.7c-1-2.2-2.9-4-5.2-4.8c-3.3-1.1-6.4-0.2-8.7,2.4c-1.6,1.7-1.4,4.3-0.5,6.4
					c-0.3,1.7-0.5,3.5,0,5.2c1,4.3,6.4,7.3,10,3.8C307.1,270.4,310.2,265.6,307.8,260.7z"/>
				<path class="st11" d="M330.4,214.5c-0.8-7.8-7-14.6-15.3-14.3c-7.8,0.3-12.9,7-15.7,13.5c-3.3,7.2-4.9,16.2,1.3,22.4
					c0.5,0.5,0.8,0.8,1.3,1.1c5.1,5.4,13.8,4.5,19.1-0.2C326.8,232.2,331.2,222.2,330.4,214.5z"/>
				<path class="st11" d="M360.9,151.1c-0.2-1.9-1.9-4.3-3.8-4.8c-2.1-0.5-3.8-0.8-5.9,0.2c-1.4,0.6-2.5,1.6-3.7,2.9
					c-1,1.3-1.3,2.9-1.1,4.5c-1,2.5-0.2,5.6,1.7,7.3c1.7,1.7,4.3,2.1,6.5,1.1c1.4-0.6,2.7-1.7,3.8-3
					C360.6,157,361.3,154,360.9,151.1z"/>
			</g>
		</g>
		<g>
			<g>
				<path class="st14" d="M484,436.3c-7.2,5.4-12.1,13-20,17.6c-6.4,3.7-15.7,6.4-22.6,2.7c-7-3.8-10.8-13.5-13.2-20.7
					c-2.9-9.1-3.2-18.8-4.8-28.1c-1.3-7.9-11.9-5.6-14,0.3c-4.5,12.2-1.7,26.6,2.7,38.3c4.3,11.4,11.1,23.1,22.9,28.1
					c23.8,10.2,47.5-13.2,53.3-35.3C488.6,437.3,485.9,434.9,484,436.3z"/>
				<g>
					<path class="st15" d="M484.8,434.3c0,0-43.6-1.3-63-27.5c0,0-11.1,45.3,15.7,54.4C466.2,470.8,484.8,434.3,484.8,434.3z"/>
					<path class="st16" d="M432.2,432.7c6.5-0.5,13.2,2.5,18.1,6.5c6.8,5.4,9.5,12.7,9.9,20.5c-6.5,3-14.1,4.3-22.6,1.4
						c-11.4-3.8-15.9-14.1-17.5-24.8C424.1,434.7,427.9,433,432.2,432.7z"/>
					<path class="st17" d="M484.8,434.3c0,0-43.6-1.3-63-27.5c0,0-11.1,45.3,15.7,54.4C466.2,470.8,484.8,434.3,484.8,434.3z"/>
					<g>
						<path d="M418.2,397.4c5.9,5.6,14,12.9,20.5,17.5c6.5,4.6,13.8,8.1,21.5,10.8c7.6,2.7,15.4,4.1,23.4,4.8
							c4.1,0.3,8.3,0.3,12.2,0.2c3.8-0.2,7.5-1,11,0.6c1,0.5,1.1,1.7,0.5,2.5c-4.8,5.9-16.5,5.9-23.4,5.9c-9.1,0.2-18-1.6-26.6-4.5
							c-8.4-2.9-16.2-7.2-23.4-12.4c-7.2-5.2-17.2-14.5-22.3-22.1C409,396.4,413.6,392.8,418.2,397.4z"/>
					</g>
					<path d="M401.6,408.7c1.7-6.2,5.2-11.8,10.8-15.1c5.2-3,13-5.1,18.3-1.1c2.1,1.6,1.3,5.2-1.1,6c-4,1.3-8.1,0.5-11.9,2.5
						c-3.7,2.1-6,5.4-7.2,9.4C409.1,415.8,400.2,414.2,401.6,408.7z"/>
				</g>
			</g>
		</g>
		<g>
			<g>
				<g>
					<g>
						<path d="M485.6,158.4c-0.2-0.2-0.3-0.2-0.5,0c-1.6,2.1-3.3,3.8-5.4,5.2c0.8-1.4,1.3-2.9,1.3-4.5c0-1.3-0.6-2.1-1.7-2.5
							c-6.2-2.9-15.3,3.2-21.1,5.1c-8.3,2.7-17.3,4.3-26.1,4.6c-11.8,0.3-23.8-2.1-35.6-1.4c-5.4-0.6-10.8-0.2-16.1,2.9
							c-1,0.6-1,2.5,0.5,2.5c9.4-0.5,17.3,3.8,26.1,6.7c9.2,3.2,18,4.1,27.8,3.7c2.4-0.2,4.9-0.5,7.3-0.8
							C455.4,180.4,496.2,177.2,485.6,158.4z"/>
					</g>
					<path d="M505.8,159.4C505.8,159.4,505.6,159.4,505.8,159.4c-1.9,12.2-11.9,17.8-21.1,24.3c-0.8,0.6-0.3,2.1,0.6,2.2
						C499.6,186.9,511.3,170.5,505.8,159.4z"/>
				</g>
				<path d="M535,173.5c-2.9-4.3-7-7.5-9.9-11.8c-3.2-4.8-5.6-10.2-6.8-15.7l0,0c-3.7,10.8,1.6,29.4,15.3,30
					C535.2,176.1,535.8,174.6,535,173.5z"/>
				<g>
					<path d="M631.5,184.2c-12.6-13.8-33.2-18.9-51-19.4c-4.8-0.8-9.5-1.6-14.1-2.7c-5.2-1.1-10.7-2.5-15.3-5.6
						c-3.7-2.2-6.7-6-10.8-7.3c-0.2,0-0.3,0-0.3,0.2c-0.3,2.4,0.3,4.5,1.4,6.5c-0.3-0.2-0.5-0.3-0.8-0.5c-3.8-2.4-5.9-6-10-7.9l0,0
						c-4.8,6.2-0.3,14.8,4.5,20c6.2,7,15.7,10.2,24.6,11.4c11.4,1.7,23.2,1,34.7,1.7c5.6,0.3,11.4,0.6,17,1.7
						c6,1.3,11.4,4.3,17.5,6.2C631.4,189.7,633.4,186.2,631.5,184.2z"/>
				</g>
			</g>
			<defs>
				<filter id="Adobe_OpacityMaskFilter" filterUnits="userSpaceOnUse" x="361.8" y="221.4" width="282.3" height="123.8">
					<feColorMatrix  type="matrix" values="1 0 0 0 0  0 1 0 0 0  0 0 1 0 0  0 0 0 1 0"/>
				</filter>
			</defs>
			
				<mask maskUnits="userSpaceOnUse" x="361.8" y="221.4" width="282.3" height="123.8" id="SVGID_00000111150617469676121670000014271462794893904013_">
			</mask>
			<g class="st18">
				<g>
					<path class="st19" d="M505.1,277.2c4.3-13.2-6.2-28.9-15.9-37c-14-11.8-32.4-17-50.4-18.4c-34-2.7-72.5,15.6-76.6,52.8
						c-1.9,17.2,2.1,36.6,13.7,49.8c10.5,11.9,26.4,18,41.8,19.9c33.2,4.1,72.3-10.3,84.6-43.9C504.8,293.1,505.8,285,505.1,277.2z"
						/>
				</g>
				<g>
					<path class="st19" d="M621.2,236.5c-5.7-4.6-12.1-7.9-18.8-10.2c0,0,0,0-0.2,0s-0.3-0.2-0.5-0.2c-5.1-1.7-10.2-2.9-14.5-3.3
						c-17.6-2.4-36.1,0.6-51.2,10.3c-5.4,2.9-10,6.7-13.7,11.9c-0.2,0.2-0.2,0.3-0.2,0.3c-9.9,11.9-15.3,27.7-13.7,42.9
						c2.2,20.5,17.5,35.9,35.3,44.8c18.3,9.1,41.7,15.7,61.8,9.9c20.5-6,35-25.1,37.7-45.9C646.3,275.3,638.4,250.5,621.2,236.5z"/>
				</g>
			</g>
			<g>
				<g>
					<g>
						<g>
							<path class="st20" d="M449.2,324.7c-1.6,0-3.3,0-5.1-0.2c-52.3-3-70.3-39.6-71.1-41l-2.4-5.1l129.1-1.1l-0.2,3.7
								C499.6,281.5,498.2,324.7,449.2,324.7z"/>
							<g>
								<path d="M496.1,281c0,0-1,40.2-46.9,40.2c-1.6,0-3.2,0-4.9-0.2c-50.9-3-68-39.1-68-39.1L496.1,281 M503.4,273.8h-7.3
									l-119.9,1l-11.1,0.2l4.8,10c0.8,1.6,19.6,39.9,74.1,43.1c1.7,0.2,3.7,0.2,5.4,0.2c27,0,40.4-12.9,46.7-23.5
									c6.8-11.6,7.2-23.1,7.2-23.5L503.4,273.8L503.4,273.8z"/>
							</g>
						</g>
						<g>
							<path class="st20" d="M581.6,330.9c-1.1,0-2.4,0-3.5-0.2c-60.7-3.3-63.8-48.3-63.8-48.8l-0.2-3.8l119.6,5.4l-0.8,4
								C633,288,624.4,330.9,581.6,330.9z"/>
							<g>
								<path d="M518,281.8l111.6,5.1c0,0-7.6,40.4-47.9,40.4c-1.1,0-2.2,0-3.3-0.2C520.1,324.1,518,281.8,518,281.8 M510.6,274.5
									l0.3,7.8c0,0.5,0.8,12.7,9.7,25.3c14.5,20.4,39.3,25.9,57.4,26.9c1.3,0,2.5,0.2,3.7,0.2c23.8,0,37.5-12.7,44.8-23.4
									c7.6-11.3,9.9-22.4,10-22.9l1.6-8.1l-8.1-0.3l-111.6-5.1L510.6,274.5L510.6,274.5z"/>
							</g>
						</g>
					</g>
					<g>
						<g>
							<path class="st21" d="M447.1,309.8c-17.5-1.9-44-9.4-50.9-28l-20,0.2c0,0,17.2,36.1,68,39.1c34.5,2.1,46.1-17.2,49.9-29.7
								C484.3,306,466.8,311.8,447.1,309.8z"/>
						</g>
						<g>
							<path class="st21" d="M600.7,310.3c-4.8,1.7-9.9,2.9-15.4,3c-20.5,0.6-41.7-10.7-48.5-30.2h-0.2l0,0c0,0-0.2-0.2-0.3-0.2
								l-18.4-0.8c0,0,2.1,42.3,60.4,45.3c26.9,1.4,40.2-14.5,46.3-26.9C618.2,306.3,609.8,309.3,600.7,310.3z"/>
						</g>
					</g>
					<path d="M408.8,279.9c-0.6,1.4-1.1,2.9-1.3,4.5c-1.3,8.7,4,16.9,11.9,18c7.9,1.3,15.4-4.9,16.7-13.7c0.6-4.1-0.2-7.9-2.1-11.1
						C425.7,278.6,417.2,279.4,408.8,279.9z"/>
					<path d="M539,279.6c-0.6,0-1.6-0.2-2.5-0.2c-1.9,2.2-3.2,5.1-3.7,8.3c-1.3,8.7,4,16.9,11.9,18c7.9,1.1,15.4-4.9,16.7-13.7
						c0.6-4.1-0.3-8.1-2.2-11.3C552.7,280.5,545.8,280.2,539,279.6z"/>
					<path d="M380.3,268c1.3-5.7,2.2-11.4,3.5-17.2c0-0.2-0.2-0.2-0.2-0.2c-6.7,4-10.2,8.4-11.8,16.2c-1.4,6.7-2.2,14,2.5,19.4
						c1.3,1.4,3.2,0.5,3.8-1C380.3,279.7,379.1,273.7,380.3,268z"/>
					<path d="M519.5,261.4c1.7-6.4,4.6-11.6,5.9-18.1c0,0,0-0.2,0,0c-12.4,3.2-18.4,29.3-11.8,40.7c1.1,1.9,3.3,1.1,3.7-1.4
						C518,275.4,517.4,268.4,519.5,261.4z"/>
					<path d="M624.7,246.2C624.5,246.2,624.5,246.2,624.7,246.2c6,15.7,5.4,39.9,3,48.8c-0.5,2.2,3.2,2.9,4.5,1.1
						C643.9,279.7,636.6,261.3,624.7,246.2z"/>
					<g class="st22">
						
							<ellipse transform="matrix(9.271726e-02 -0.9957 0.9957 9.271726e-02 93.7175 729.9249)" class="st23" cx="447.4" cy="313.5" rx="4.3" ry="9.7"/>
						
							<ellipse transform="matrix(9.271692e-02 -0.9957 0.9957 9.271692e-02 132.459 735.7184)" class="st23" cx="469.9" cy="295.2" rx="10" ry="17.8"/>
					</g>
					<g class="st22">
						
							<ellipse transform="matrix(9.271726e-02 -0.9957 0.9957 9.271726e-02 212.3969 866.8969)" class="st23" cx="581.9" cy="316.9" rx="4.3" ry="9.7"/>
						
							<ellipse transform="matrix(9.271692e-02 -0.9957 0.9957 9.271692e-02 250.7371 867.9628)" class="st23" cx="601.6" cy="296.4" rx="10" ry="17.8"/>
					</g>
				</g>
			</g>
		</g>
		<g>
			<g>
				<ellipse class="st24" cx="443" cy="340.9" rx="50.7" ry="37.2"/>
				<ellipse class="st25" cx="443" cy="340.9" rx="50.7" ry="37.2"/>
				<path class="st23" d="M429.2,326.3c-0.2-2.5-1.4-4-3-4.8c-3.5-3.5-8.3-2.7-12.2-0.6c-3.5,1.9-6.5,4.8-8.6,8.6
					c-2.5,4.9-2.2,11.9,3.2,14.3c4.6,1.9,9.1-1.3,12.7-4.1C425.2,336.6,429.6,332.2,429.2,326.3z"/>
				<path class="st23" d="M430.9,352.2c-1.1-1-2.7-1.4-4.1-1.4c-1.1-0.6-2.5-0.8-3.7,0c-1,0.6-1.7,1.1-2.4,2.2
					c-0.3,0.6-0.8,1.4-1,2.1c-0.3,1.3-0.5,2.4-0.2,3.7c0.2,1.1,0.5,1.9,1,2.9c1.1,2.1,2.7,3.2,4.8,3.7c1.9,0.3,3.7-0.3,5.2-1.6
					C434.1,361.1,434.1,355.1,430.9,352.2z"/>
			</g>
			<g>
				<ellipse class="st24" cx="572.2" cy="340.9" rx="50.7" ry="37.2"/>
				<ellipse class="st25" cx="572.2" cy="340.9" rx="50.7" ry="37.2"/>
				<path class="st23" d="M558.4,326.3c-0.2-2.5-1.4-4-3-4.8c-3.5-3.5-8.3-2.7-12.2-0.6c-3.5,1.9-6.5,4.8-8.6,8.6
					c-2.5,4.9-2.2,11.9,3.2,14.3c4.6,1.9,9.1-1.3,12.7-4.1C554.3,336.6,558.9,332.2,558.4,326.3z"/>
				<path class="st23" d="M560.2,352.2c-1.1-1-2.7-1.4-4.1-1.4c-1.1-0.6-2.5-0.8-3.7,0c-1,0.6-1.7,1.1-2.4,2.2
					c-0.3,0.6-0.8,1.4-1,2.1c-0.3,1.3-0.5,2.4-0.2,3.7c0.2,1.1,0.5,1.9,1,2.9c1.1,2.1,2.7,3.2,4.8,3.7c1.9,0.3,3.7-0.3,5.2-1.6
					C563.3,361.1,563.3,355.1,560.2,352.2z"/>
			</g>
			<path class="st25" d="M494.2,336.8c0,0,12.2-17.5,26.4,0.8"/>
		</g>
	</g>
</g>
<g id="Capa_15">
</g>
</svg>
