<?xml version="1.0" encoding="utf-8"?>
<!-- Generator: Adobe Illustrator 27.9.6, SVG Export Plug-In . SVG Version: 9.03 Build 54986)  -->
<svg version="1.1" id="Layer_1" xmlns="http://www.w3.org/2000/svg" xmlns:xlink="http://www.w3.org/1999/xlink" x="0px" y="0px"
	 viewBox="0 0 331.1 157.8" style="enable-background:new 0 0 331.1 157.8;" xml:space="preserve">
<style type="text/css">
	.st0{fill:#00558C;}
	.st1{fill:#FFFFFF;}
	.st2{fill:#003041;}
</style>
<g>
	<g>
		<path class="st2" d="M24.1,133.3h-7.1l3.6-11L24.1,133.3z M33.6,143.3l-11.9-30.1h-2.3L7.5,143.3h5.9l2.1-6h10.2l2.2,6H33.6z"/>
		<path class="st2" d="M40.9,126.5c0.7-0.7,1.7-1.1,2.8-1.1c1.1,0,2,0.4,2.7,1.1c0.7,0.8,1,1.7,1,2.8c0,1.3-0.3,2.4-1,3.1
			c-0.6,0.8-1.6,1.1-2.8,1.1c-1.2,0-2.1-0.4-2.9-1.2c-0.7-0.8-1.1-1.8-1.1-3.1C39.9,128.1,40.2,127.2,40.9,126.5z M43.8,151.8
			c2.8,0,5.1-0.6,7.1-1.9c2-1.2,2.9-3,2.9-5.2c0-4-2.4-5.9-7.3-5.9c-0.7,0-1.5,0.1-2.5,0.3c-1,0.2-1.7,0.3-2.1,0.3
			c-0.9,0-1.4-0.3-1.4-0.8c0-0.3,0.3-0.6,0.9-0.9c0.6-0.3,1-0.4,1.1-0.4l0.8,0.1c0.6,0.1,1.1,0.1,1.5,0.1c2.3,0,4.2-0.7,5.7-2.2
			c1.5-1.5,2.3-3.5,2.3-5.9c0-1.7-0.4-3.2-1.3-4.5l2.4-1.8l-3.5-3.2l-2,2.3c-1.3-0.7-2.9-1.1-4.9-1.1c-2.5,0-4.6,0.8-6.3,2.3
			c-1.7,1.5-2.5,3.4-2.5,5.8c0,2.9,1.2,5.2,3.7,6.8c-0.8,0.3-1.4,0.8-2,1.5c-0.6,0.7-0.9,1.4-0.9,2.1c0,2.5,1.7,3.7,5.2,3.7
			c0.6,0,1.4-0.1,2.5-0.2c1.1-0.1,2-0.2,2.5-0.2c2.1,0,3.1,0.6,3.1,1.9c0,0.8-0.5,1.3-1.4,1.8c-0.9,0.4-2.1,0.6-3.6,0.6
			c-2.2,0-4.1-0.8-5.9-2.4l-3.2,3.9C37.5,150.9,40.5,151.8,43.8,151.8z"/>
		<path class="st2" d="M66.7,125.4c3.2,0,4.9,1.6,5.3,4.8H61.3C62,127,63.8,125.4,66.7,125.4z M77.1,131.2c0-2.9-1-5.3-2.9-7.2
			c-1.9-1.9-4.4-2.8-7.6-2.8c-3,0-5.5,1.1-7.6,3.2c-2.1,2.1-3.2,4.9-3.2,8.3c0,3.5,1,6.2,2.9,8.1c1.9,1.9,4.5,2.9,7.9,2.9
			c3.5,0,6.2-0.7,8-2.2l-2-3.8c-1.2,1.2-3,1.8-5.3,1.8c-1.9,0-3.3-0.5-4.4-1.4c-1.1-1-1.7-2.3-1.8-4h15.5
			C76.9,132.7,77.1,131.8,77.1,131.2z"/>
		<path class="st2" d="M95,143.3v-12.6c0-1.9-0.4-3.2-1.1-4.1c-0.7-0.9-1.9-1.3-3.5-1.3c-0.7,0-1.5,0.2-2.4,0.6
			c-0.8,0.4-1.5,0.9-2,1.6v15.7h-5v-21.7h3.6l0.9,2c1.4-1.6,3.4-2.5,6.1-2.5c2.6,0,4.6,0.8,6.1,2.3c1.5,1.5,2.2,3.7,2.2,6.5v13.3H95
			z"/>
		<path class="st2" d="M119.5,138.1c-0.2,0.3-0.7,0.6-1.4,0.9c-0.7,0.3-1.3,0.4-1.8,0.4c-4.3,0-6.5-2.3-6.5-6.8
			c0-2.3,0.5-4.1,1.6-5.3c1.1-1.2,2.7-1.9,4.7-1.9c1.2,0,2.3,0.4,3.4,1.3V138.1z M124.6,143.3v-31l-5,1.2v8.7c-1.4-0.7-2.8-1-4.5-1
			c-3,0-5.5,1.1-7.5,3.2c-2,2.2-3,4.9-3,8.4c0,3.4,0.9,6.1,2.6,8c1.7,1.9,4.1,2.9,7.1,2.9c1.1,0,2.1-0.2,3.1-0.5
			c1-0.3,1.7-0.7,2.1-1.2v1.3H124.6z"/>
		<path class="st2" d="M141.3,135.1c0,3-1.5,4.5-4.6,4.5c-2.3,0-3.4-1-3.4-2.9c0-2.6,2-4,6.1-4c0.4,0,1.1,0.1,2,0.3V135.1z
			 M143,142.9c0.6,0.5,1.2,0.8,2,0.8c0.7,0,1.2-0.1,1.8-0.3c0.5-0.2,1-0.6,1.4-1.4c-1.2-0.7-1.7-2.6-1.7-5.4V132
			c0-4.2-0.8-7-2.3-8.5c-1.5-1.5-4-2.3-7.3-2.3c-2.4,0-4.5,0.4-6.3,1.2l1.1,3.9c1.3-0.6,2.9-0.9,4.8-0.9c3.2,0,4.9,1.3,4.9,3.9
			c-0.8-0.2-1.5-0.3-2.1-0.3c-3.5,0-6.2,0.7-8.1,2.1c-1.9,1.4-2.8,3.4-2.8,5.9c0,2.1,0.7,3.8,2,5c1.3,1.2,3.2,1.8,5.5,1.8
			c1.2,0,2.4-0.2,3.6-0.7c1.1-0.5,2-1.1,2.4-1.8C142,141.8,142.4,142.4,143,142.9z"/>
		<path class="st2" d="M178.2,138.1c-0.2,0.3-0.7,0.6-1.4,0.9c-0.7,0.3-1.3,0.4-1.8,0.4c-4.3,0-6.5-2.3-6.5-6.8
			c0-2.3,0.5-4.1,1.6-5.3c1.1-1.2,2.7-1.9,4.7-1.9c1.2,0,2.3,0.4,3.4,1.3V138.1z M183.3,143.3v-31l-5,1.2v8.7c-1.4-0.7-2.8-1-4.5-1
			c-3,0-5.5,1.1-7.5,3.2c-2,2.2-3,4.9-3,8.4c0,3.4,0.9,6.1,2.6,8c1.7,1.9,4.1,2.9,7.1,2.9c1.1,0,2.1-0.2,3.1-0.5
			c1-0.3,1.7-0.7,2.1-1.2v1.3H183.3z"/>
		<path class="st2" d="M197.8,125.4c3.2,0,4.9,1.6,5.3,4.8h-10.7C193.1,127,194.9,125.4,197.8,125.4z M208.2,131.2
			c0-2.9-1-5.3-2.9-7.2c-1.9-1.9-4.4-2.8-7.6-2.8c-3,0-5.5,1.1-7.6,3.2c-2.1,2.1-3.2,4.9-3.2,8.3c0,3.5,1,6.2,2.9,8.1
			c1.9,1.9,4.6,2.9,7.9,2.9c3.5,0,6.2-0.7,8-2.2l-2-3.8c-1.2,1.2-3,1.8-5.3,1.8c-1.9,0-3.3-0.5-4.4-1.4c-1.1-1-1.7-2.3-1.8-4h15.5
			C208,132.7,208.2,131.8,208.2,131.2z"/>
		<path class="st2" d="M213.1,113.5l5-1.2v24.4c0,2.7,0.8,4.3,2.4,4.8c-0.8,1.5-2.1,2.2-4,2.2c-2.3,0-3.4-1.6-3.4-4.8V113.5z"/>
		<path class="st2" d="M264.9,143.3h-5.1l-3.1-15.9l-6,16.3h-1.9l-6-16.3l-3.2,15.9h-5.1l6-29.7h2.8l6.4,19.9l6.3-19.9h2.8
			L264.9,143.3z"/>
		<path class="st2" d="M279.5,135.1c0,3-1.5,4.5-4.6,4.5c-2.3,0-3.4-1-3.4-2.9c0-2.6,2-4,6.1-4c0.4,0,1.1,0.1,2,0.3V135.1z
			 M281.2,142.9c0.6,0.5,1.2,0.8,2,0.8c0.7,0,1.3-0.1,1.8-0.3c0.5-0.2,1-0.6,1.4-1.4c-1.2-0.7-1.7-2.6-1.7-5.4V132
			c0-4.2-0.8-7-2.3-8.5c-1.6-1.5-4-2.3-7.3-2.3c-2.4,0-4.5,0.4-6.2,1.2l1.1,3.9c1.3-0.6,2.9-0.9,4.8-0.9c3.2,0,4.9,1.3,4.9,3.9
			c-0.8-0.2-1.5-0.3-2.1-0.3c-3.5,0-6.2,0.7-8.1,2.1c-1.9,1.4-2.8,3.4-2.8,5.9c0,2.1,0.7,3.8,2,5c1.3,1.2,3.2,1.8,5.5,1.8
			c1.2,0,2.4-0.2,3.6-0.7c1.1-0.5,2-1.1,2.4-1.8C280.2,141.8,280.6,142.4,281.2,142.9z"/>
		<path class="st2" d="M302.4,126.4c-0.9-0.6-1.9-0.9-3-0.9c-1.2,0-2.2,0.5-3.1,1.6c-0.9,1.1-1.4,2.4-1.4,3.9v12.4h-5v-21.7h5v2
			c1.4-1.6,3.3-2.4,5.6-2.4c1.7,0,3,0.3,4,0.8L302.4,126.4z"/>
		<path class="st2" d="M312.2,119.1c0-2.9,2.2-5.2,5.1-5.2c2.8,0,5,2.2,5,5.2c0,3-2.2,5.2-5,5.2
			C314.4,124.3,312.2,122.1,312.2,119.1z M317.3,125.3c3.4,0,6.3-2.6,6.3-6.2c0-3.6-2.9-6.2-6.3-6.2c-3.4,0-6.3,2.6-6.3,6.2
			C311,122.7,313.9,125.3,317.3,125.3z M316,119.6h1.2l1.9,3.1h1.2l-2-3.2c1.1-0.1,1.9-0.7,1.9-2c0-1.4-0.8-2-2.5-2h-2.7v7.2h1.1
			V119.6z M316,118.7v-2.2h1.5c0.8,0,1.6,0.2,1.6,1.1c0,1.1-0.8,1.2-1.7,1.2H316z"/>
	</g>
	<path class="st2" d="M198.1,46.4V35l-3.1,6.2C196.2,42.8,197.2,44.5,198.1,46.4z M165.5,6c-25,0-45.4,20.3-45.4,45.3
		c0,25.1,20.3,45.4,45.4,45.4c25.1,0,45.4-20.3,45.4-45.4C210.9,26.3,190.6,6,165.5,6z M199.7,56.4c-0.7,0.1-1.4-0.4-1.6-1.1
		c-3.2-15.2-16.9-26.2-32.4-26.2c-10.6,0-20.6,5.1-26.9,13.7c-0.3,0.5-0.5,1-0.5,1.1c0,0.3,0.4,0.7,0.5,0.9
		c6.3,8.4,16,13.1,26.4,13.1c7.5,0,14.6-2.4,20.5-7.1c0.4-0.3,1-0.8,1.9-0.8h0c1,0,1.7,0.6,2.1,0.9c1.7,1.6,3.3,3.3,4.7,5.1
		c0.5,0.7,1.1,1.6,1.1,2.7c0,0.9-0.4,1.9-1,2.8c-6.8,9.3-17.7,14.9-29.2,14.9c-10.7,0-20.6-4.8-27.3-12.5l-5.2,10.4
		c-0.3,0.6-1,0.9-1.6,0.8c-0.7-0.2-1.1-0.7-1.1-1.4V47.8c0-0.7,0.6-1.4,1.3-1.4c0.7-0.1,1.4,0.4,1.6,1.1
		c3.3,15.2,16.9,26.2,32.4,26.2c10.6,0,20.6-5.1,26.9-13.7c0.3-0.5,0.5-0.9,0.5-1.1c0-0.2-0.2-0.5-0.5-0.9c-1.3-1.7-2.7-3.3-4.4-4.7
		c0,0-0.1-0.1-0.1-0.1c0,0-0.1,0.1-0.1,0.1c-6.4,5-14.1,7.7-22.3,7.7c-11.4,0-21.9-5.2-28.7-14.3c-0.5-0.7-1.1-1.6-1.1-2.7
		c0-1.3,0.8-2.5,1-2.8c6.8-9.3,17.7-14.9,29.2-14.9c10.7,0,20.5,4.8,27.2,12.5l5.3-10.4c0.3-0.6,1-0.9,1.6-0.8
		c0.7,0.2,1.1,0.7,1.1,1.4v26C201,55.7,200.5,56.3,199.7,56.4z M146.8,43.9c0,1.3-1,2.3-2.3,2.3c-1.3,0-2.3-1-2.3-2.3
		c0-1.3,1-2.3,2.3-2.3C145.8,41.6,146.8,42.6,146.8,43.9z M185,59c0-1.3,1-2.3,2.3-2.3c1.3,0,2.3,1,2.3,2.3c0,1.3-1,2.3-2.3,2.3
		C186,61.3,185,60.3,185,59z M133,67.6l3.1-6.1c-1.2-1.6-2.2-3.3-3.1-5.1V67.6z"/>
</g>
</svg>
