<?xml version="1.0" encoding="utf-8"?>
<!-- Generator: Adobe Illustrator 27.9.6, SVG Export Plug-In . SVG Version: 9.03 Build 54986)  -->
<svg version="1.1" id="Layer_1" xmlns="http://www.w3.org/2000/svg" xmlns:xlink="http://www.w3.org/1999/xlink" x="0px" y="0px"
	 viewBox="0 0 408.6 90.9" style="enable-background:new 0 0 408.6 90.9;" xml:space="preserve">
<style type="text/css">
	.st0{fill:#00558C;}
	.st1{fill:#FFFFFF;}
	.st2{fill:#003041;}
</style>
<g>
	<path class="st1" d="M24,48h-7.1l3.5-11L24,48z M33.5,58l-11.9-30h-2.3L7.5,58h5.8l2.1-6h10.1l2.2,6H33.5z"/>
	<path class="st1" d="M40.9,41.1c0.7-0.7,1.7-1.1,2.8-1.1c1.1,0,2,0.4,2.7,1.1c0.7,0.8,1,1.7,1,2.8c0,1.3-0.3,2.3-1,3.1
		c-0.7,0.8-1.6,1.1-2.8,1.1c-1.2,0-2.1-0.4-2.8-1.2c-0.7-0.8-1.1-1.8-1.1-3.1C39.8,42.8,40.1,41.9,40.9,41.1 M43.7,66.5
		c2.8,0,5.1-0.6,7.1-1.9c2-1.3,2.9-3,2.9-5.1c0-3.9-2.4-5.9-7.3-5.9c-0.7,0-1.5,0.1-2.5,0.3c-1,0.2-1.7,0.3-2.1,0.3
		c-0.9,0-1.4-0.3-1.4-0.8c0-0.3,0.3-0.6,0.9-0.9c0.6-0.3,1-0.4,1-0.4l0.8,0.1c0.6,0.1,1.1,0.1,1.4,0.1c2.3,0,4.2-0.8,5.7-2.2
		c1.5-1.5,2.3-3.5,2.3-5.9c0-1.7-0.4-3.2-1.2-4.5l2.4-1.8l-3.5-3.2l-2,2.3c-1.3-0.7-2.9-1.1-4.9-1.1c-2.5,0-4.6,0.8-6.2,2.3
		c-1.7,1.5-2.5,3.4-2.5,5.7c0,2.9,1.2,5.2,3.7,6.8c-0.8,0.3-1.4,0.8-2,1.5c-0.6,0.7-0.9,1.4-0.9,2.1c0,2.5,1.7,3.7,5.2,3.7
		c0.6,0,1.4-0.1,2.5-0.2c1.1-0.1,2-0.2,2.5-0.2c2.1,0,3.1,0.6,3.1,1.9c0,0.8-0.5,1.3-1.4,1.8c-0.9,0.4-2.1,0.6-3.6,0.6
		c-2.2,0-4.1-0.8-5.9-2.4l-3.2,3.9C37.4,65.5,40.4,66.5,43.7,66.5"/>
	<path class="st1" d="M66.6,40.1c3.2,0,4.9,1.6,5.3,4.8H61.2C61.9,41.7,63.7,40.1,66.6,40.1 M76.9,45.8c0-2.9-0.9-5.3-2.9-7.1
		c-1.9-1.9-4.4-2.8-7.6-2.8c-3,0-5.5,1.1-7.6,3.2c-2.1,2.1-3.2,4.9-3.2,8.3c0,3.5,1,6.2,2.9,8.1c1.9,1.9,4.5,2.9,7.9,2.9
		c3.5,0,6.2-0.7,8-2.2l-2-3.8c-1.2,1.2-2.9,1.8-5.3,1.8c-1.8,0-3.3-0.5-4.4-1.4c-1.1-1-1.7-2.3-1.8-4h15.5
		C76.8,47.4,76.9,46.5,76.9,45.8"/>
	<path class="st1" d="M94.8,58V45.4c0-1.9-0.4-3.2-1.1-4.1c-0.7-0.8-1.9-1.3-3.5-1.3c-0.7,0-1.5,0.2-2.4,0.6c-0.8,0.4-1.5,0.9-2,1.6
		V58h-5V36.3h3.6l0.9,2c1.4-1.6,3.4-2.4,6.1-2.4c2.6,0,4.6,0.8,6.1,2.3c1.5,1.5,2.2,3.7,2.2,6.5V58H94.8z"/>
	<path class="st1" d="M119.3,52.8c-0.2,0.3-0.7,0.6-1.4,0.9c-0.7,0.3-1.3,0.4-1.8,0.4c-4.3,0-6.5-2.2-6.5-6.7c0-2.3,0.5-4.1,1.6-5.3
		c1.1-1.2,2.7-1.8,4.7-1.8c1.2,0,2.3,0.4,3.4,1.3V52.8z M124.3,58V27l-5,1.2v8.7c-1.4-0.7-2.8-1-4.5-1c-3,0-5.5,1.1-7.5,3.2
		c-2,2.1-3,4.9-3,8.4c0,3.4,0.9,6.1,2.6,8c1.7,1.9,4.1,2.9,7.1,2.9c1.1,0,2.1-0.2,3.1-0.5c1-0.3,1.7-0.7,2.1-1.2V58H124.3z"/>
	<path class="st1" d="M141,49.8c0,3-1.5,4.5-4.6,4.5c-2.3,0-3.4-1-3.4-2.9c0-2.6,2-3.9,6-3.9c0.4,0,1.1,0.1,2,0.3V49.8z M142.7,57.5
		c0.6,0.5,1.2,0.8,2,0.8c0.7,0,1.2-0.1,1.8-0.3c0.5-0.2,1-0.6,1.4-1.4c-1.2-0.7-1.7-2.5-1.7-5.4v-4.6c0-4.2-0.8-7-2.3-8.5
		c-1.6-1.5-4-2.2-7.3-2.2c-2.4,0-4.5,0.4-6.2,1.2l1.1,3.9c1.3-0.6,2.9-0.9,4.8-0.9c3.2,0,4.9,1.3,4.9,3.8c-0.8-0.2-1.5-0.3-2.1-0.3
		c-3.5,0-6.2,0.7-8,2.1c-1.9,1.4-2.8,3.4-2.8,5.9c0,2.2,0.7,3.8,2,5c1.3,1.2,3.2,1.8,5.5,1.8c1.2,0,2.4-0.2,3.6-0.7
		c1.1-0.5,1.9-1.1,2.4-1.8C141.7,56.5,142.1,57,142.7,57.5"/>
	<path class="st1" d="M177.9,52.8c-0.2,0.3-0.7,0.6-1.4,0.9c-0.7,0.3-1.3,0.4-1.8,0.4c-4.3,0-6.5-2.2-6.5-6.7c0-2.3,0.5-4.1,1.6-5.3
		c1.1-1.2,2.6-1.8,4.7-1.8c1.2,0,2.3,0.4,3.4,1.3V52.8z M182.9,58V27l-5,1.2v8.7c-1.3-0.7-2.8-1-4.5-1c-3,0-5.5,1.1-7.5,3.2
		c-2,2.1-3,4.9-3,8.4c0,3.4,0.9,6.1,2.6,8c1.7,1.9,4.1,2.9,7.1,2.9c1.1,0,2.1-0.2,3.1-0.5c1-0.3,1.7-0.7,2.1-1.2V58H182.9z"/>
	<path class="st1" d="M197.4,40.1c3.2,0,4.9,1.6,5.3,4.8H192C192.7,41.7,194.5,40.1,197.4,40.1 M207.8,45.8c0-2.9-0.9-5.3-2.9-7.1
		c-1.9-1.9-4.4-2.8-7.6-2.8c-3,0-5.5,1.1-7.6,3.2c-2.1,2.1-3.2,4.9-3.2,8.3c0,3.5,1,6.2,2.9,8.1c1.9,1.9,4.5,2.9,7.9,2.9
		c3.5,0,6.2-0.7,8-2.2l-2-3.8c-1.2,1.2-3,1.8-5.3,1.8c-1.9,0-3.3-0.5-4.4-1.4c-1.1-1-1.7-2.3-1.8-4h15.5
		C207.6,47.4,207.8,46.5,207.8,45.8"/>
	<path class="st1" d="M212.7,28.2l5-1.2v24.4c0,2.7,0.8,4.3,2.4,4.8c-0.8,1.5-2.1,2.2-4,2.2c-2.3,0-3.4-1.6-3.4-4.8V28.2z"/>
	<polygon class="st1" points="264.4,58 259.3,58 256.2,42.1 250.2,58.3 248.4,58.3 242.4,42.1 239.2,58 234.1,58 240.1,28.4 
		242.9,28.4 249.3,48.3 255.5,28.4 258.3,28.4 	"/>
	<path class="st1" d="M278.9,49.8c0,3-1.5,4.5-4.6,4.5c-2.3,0-3.4-1-3.4-2.9c0-2.6,2-3.9,6.1-3.9c0.4,0,1.1,0.1,2,0.3V49.8z
		 M280.6,57.5c0.6,0.5,1.2,0.8,2,0.8c0.7,0,1.3-0.1,1.8-0.3c0.5-0.2,1-0.6,1.4-1.4c-1.2-0.7-1.7-2.5-1.7-5.4v-4.6
		c0-4.2-0.8-7-2.3-8.5c-1.6-1.5-4-2.2-7.3-2.2c-2.4,0-4.5,0.4-6.2,1.2l1.1,3.9c1.3-0.6,2.9-0.9,4.8-0.9c3.2,0,4.9,1.3,4.9,3.8
		c-0.8-0.2-1.5-0.3-2.1-0.3c-3.5,0-6.2,0.7-8,2.1c-1.9,1.4-2.8,3.4-2.8,5.9c0,2.2,0.7,3.8,2,5c1.3,1.2,3.2,1.8,5.5,1.8
		c1.2,0,2.4-0.2,3.6-0.7c1.1-0.5,1.9-1.1,2.4-1.8C279.6,56.5,280,57,280.6,57.5"/>
	<path class="st1" d="M301.8,41c-0.9-0.6-1.9-0.9-3-0.9c-1.2,0-2.2,0.5-3.1,1.6c-0.9,1.1-1.4,2.4-1.4,3.9V58h-5V36.3h5v2
		c1.4-1.6,3.3-2.4,5.6-2.4c1.7,0,3,0.3,3.9,0.8L301.8,41z"/>
	<path class="st1" d="M311.6,33.8c0-2.9,2.2-5.2,5.1-5.2c2.8,0,5,2.2,5,5.2c0,3-2.2,5.2-5,5.2C313.8,39,311.6,36.8,311.6,33.8
		 M316.6,40c3.4,0,6.3-2.6,6.3-6.2c0-3.6-2.9-6.2-6.3-6.2c-3.4,0-6.3,2.6-6.3,6.2C310.3,37.4,313.2,40,316.6,40 M315.3,34.3h1.3
		l1.9,3.1h1.2l-2-3.1c1.1-0.1,1.9-0.7,1.9-2c0-1.4-0.8-2-2.5-2h-2.7v7.2h1.1V34.3z M315.3,33.4v-2.2h1.5c0.7,0,1.6,0.2,1.6,1.1
		c0,1.1-0.8,1.2-1.7,1.2H315.3z"/>
	<g>
		<path class="st1" d="M401.1,45.4c0,20.1-16.3,36.4-36.4,36.4c-20.1,0-36.4-16.3-36.4-36.4c0-20.1,16.3-36.4,36.4-36.4
			C384.8,9,401.1,25.3,401.1,45.4z"/>
		<g>
			<path class="st0" d="M364.5,65.7c-8.6,0-16.5-3.9-21.9-10.1l-4.2,8.3c-0.2,0.5-0.8,0.7-1.3,0.6c-0.5-0.1-0.9-0.6-0.9-1.1V42.6
				c0-0.6,0.5-1.1,1-1.2c0.6-0.1,1.1,0.3,1.3,0.9c2.6,12.2,13.6,21,26,21c8.5,0,16.6-4.1,21.6-11c0.3-0.4,0.4-0.8,0.4-0.9
				c0-0.1-0.1-0.4-0.4-0.7c-1-1.4-2.2-2.6-3.5-3.8c0,0-0.1-0.1-0.1-0.1c0,0-0.1,0.1-0.1,0.1c-5.1,4.1-11.3,6.2-17.9,6.2
				c-9.1,0-17.6-4.2-23.1-11.5c-0.4-0.6-0.9-1.3-0.9-2.1c0-0.7,0.3-1.6,0.8-2.3c5.4-7.5,14.2-12,23.5-12c8.6,0,16.5,3.8,21.9,10
				l4.3-8.3c0.2-0.5,0.8-0.7,1.3-0.6c0.5,0.1,0.9,0.6,0.9,1.1v20.9c0,0.6-0.5,1.1-1,1.2c-0.6,0.1-1.1-0.3-1.3-0.9
				c-2.6-12.2-13.6-21-26-21c-8.5,0-16.6,4.1-21.6,11c-0.3,0.4-0.4,0.8-0.4,0.9c0,0.1,0.1,0.4,0.4,0.7c5.1,6.7,12.8,10.6,21.2,10.6
				c6,0,11.7-2,16.4-5.7c0.3-0.3,0.8-0.6,1.6-0.6c0.8,0,1.4,0.5,1.6,0.7c1.4,1.2,2.7,2.6,3.8,4.1c0.4,0.6,0.9,1.3,0.9,2.1
				c0,0.7-0.3,1.6-0.8,2.3C382.5,61.2,373.8,65.7,364.5,65.7z M338.5,49.4v9l2.5-4.9C340,52.3,339.2,50.9,338.5,49.4z M388.3,37.2
				c1,1.3,1.8,2.7,2.5,4.2v-9.1L388.3,37.2z"/>
			<path class="st0" d="M347.8,37.6c1,0,1.8,0.8,1.8,1.8c0,1-0.8,1.8-1.8,1.8c-1,0-1.8-0.8-1.8-1.8
				C345.9,38.4,346.7,37.6,347.8,37.6"/>
			<path class="st0" d="M382.1,49.7c1,0,1.8,0.8,1.8,1.8c0,1-0.8,1.8-1.8,1.8s-1.8-0.8-1.8-1.8C380.3,50.6,381.1,49.7,382.1,49.7"/>
		</g>
	</g>
</g>
</svg>
